<svg width="40" height="40" viewBox="0 0 24 24" fill="none" xmlns="http://www.w3.org/2000/svg">
<g clip-path="url(#clip0_151_1948)">
<path d="M21.6947 19.941C21.379 20.183 21.0408 20.4032 20.7 20.6004C18.1515 22.1325 14.8514 22.9321 11.9885 22.9321C7.37592 22.9321 3.25056 21.2299 0.120627 18.3859C-0.147711 18.1664 0.0711604 17.8513 0.386932 18.0207C3.76013 19.9898 7.93428 21.1824 12.2541 21.1824C14.9734 21.1824 17.9068 20.6715 20.6993 19.5758C20.8924 19.5053 21.1113 19.405 21.3058 19.3346C21.7429 19.1374 22.1318 19.6273 21.6947 19.941Z" fill="#FEBC71"/>
<path fill-rule="evenodd" clip-rule="evenodd" d="M14.1948 6.70235L13.951 6.72142C13.4301 6.7619 12.8512 6.80687 12.2724 6.88463C11.2451 7.01677 10.2179 7.19701 9.36948 7.59817C7.71676 8.27172 6.59937 9.70218 6.59937 11.8055C6.59937 14.4469 8.29749 15.7865 10.4408 15.7865C11.157 15.7865 11.7371 15.6991 12.2724 15.5643C13.1228 15.2959 13.8377 14.8033 14.6861 13.9102C14.785 14.0449 14.8694 14.1652 14.948 14.2772C15.2609 14.7232 15.4821 15.0384 16.1613 15.6104C16.3842 15.7005 16.6072 15.7005 16.7861 15.5656C17.3221 15.1191 18.2592 14.3134 18.7518 13.8662C18.9741 13.6852 18.93 13.4189 18.7966 13.194C18.7661 13.1553 18.7357 13.1169 18.7054 13.0787C18.2452 12.4988 17.814 11.9553 17.814 10.8236V6.79654C17.814 6.64652 17.815 6.49757 17.816 6.34987C17.8266 4.82111 17.8362 3.42666 16.698 2.36693C15.6693 1.42435 14.0613 1.0686 12.8118 1.0686H12.2751C9.99696 1.20209 7.58531 2.18465 7.04795 5.00626C6.95986 5.36201 7.22888 5.49822 7.40709 5.54362L9.90819 5.85803C10.1765 5.8106 10.31 5.58834 10.3541 5.36337C10.5797 4.3815 11.3827 3.88886 12.2758 3.79874H12.4554C12.9907 3.79874 13.5707 4.02371 13.8845 4.46755C14.2052 4.95515 14.2013 5.58876 14.1976 6.16788C14.1972 6.22858 14.1969 6.28868 14.1969 6.34795L14.1948 6.70235ZM13.7036 12.0271C13.3912 12.6539 12.8545 13.0564 12.2738 13.1913C12.234 13.1913 12.1854 13.2005 12.1317 13.2107C12.0656 13.2233 11.9918 13.2373 11.9173 13.2373C10.9348 13.2373 10.352 12.4764 10.352 11.3569C10.352 9.92715 11.2018 9.25359 12.2738 8.94121C12.8545 8.80772 13.5253 8.76164 14.1955 8.76164V9.299C14.1955 9.37092 14.1956 9.44174 14.1958 9.51157C14.1979 10.4417 14.1996 11.1957 13.7036 12.0271Z" fill="white"/>
<path d="M24 18.2402V18.3859C23.9763 19.2607 23.5148 20.9392 22.4225 21.8628C22.2043 22.0322 21.9854 21.9353 22.0817 21.6907C22.3995 20.9148 23.1259 19.1137 22.7864 18.701C22.5458 18.3859 21.5491 18.4096 20.7 18.4828C20.5608 18.5003 20.4276 18.5144 20.3018 18.5278C20.0771 18.5516 19.8757 18.5729 19.7046 18.6068C19.4627 18.6292 19.4125 18.4123 19.6565 18.2429C19.9722 18.0241 20.3131 17.8546 20.7007 17.7306C22.0823 17.3186 23.6863 17.5612 23.9051 17.8296C23.9526 17.8987 24 18.0444 24 18.2402Z" fill="#FEBC71"/>
</g>
<defs>
<clipPath id="clip0_151_1948">
<rect width="24" height="24" fill="white"/>
</clipPath>
</defs>
</svg>
