<svg width="40" height="40" viewBox="0 0 24 24" fill="none" xmlns="http://www.w3.org/2000/svg">
<g clip-path="url(#clip0_151_1220)">
<path d="M23 12C23 5.92487 18.0751 1 12 1C5.92487 1 1 5.92487 1 12C1 18.0751 5.92487 23 12 23C18.0751 23 23 18.0751 23 12Z" stroke="url(#paint0_linear_151_1220)"/>
<path d="M15.3 7.01207C15.4833 6.97586 15.6458 7.02112 15.7875 7.14789C15.9292 7.27467 16 7.43765 16 7.63685V14.6045C16 15.2474 15.8333 15.7499 15.5 16.1121C15.1667 16.4652 14.7083 16.6418 14.125 16.6418C13.725 16.6418 13.3958 16.5286 13.1375 16.3022C12.8792 16.0668 12.75 15.7725 12.75 15.4194C12.75 14.9757 12.9125 14.6045 13.2375 14.3057C13.5625 14.0069 13.9833 13.8575 14.5 13.8575C14.6917 13.8575 14.8958 13.8937 15.1125 13.9661C15.1208 13.9661 15.1292 13.9616 15.1375 13.9525C15.1458 13.9525 15.15 13.948 15.15 13.9389V9.45685C15.15 9.42969 15.1375 9.40706 15.1125 9.38894C15.0875 9.36178 15.0625 9.35273 15.0375 9.36178L10.35 10.3397C10.2833 10.3578 10.25 10.4031 10.25 10.4755V15.9627C10.25 16.6056 10.0833 17.1081 9.75 17.4703C9.41667 17.8234 8.95832 18 8.375 18C7.975 18 7.64582 17.8823 7.3875 17.6469C7.12917 17.4205 7 17.1307 7 16.7776C7 16.3339 7.1625 15.9627 7.4875 15.6639C7.8125 15.3651 8.23332 15.2157 8.75 15.2157C8.94167 15.2157 9.14582 15.2519 9.3625 15.3243C9.37082 15.3243 9.37917 15.3198 9.3875 15.3107C9.39582 15.3107 9.4 15.3062 9.4 15.2972V8.99506C9.4 8.7687 9.4625 8.56948 9.5875 8.39745C9.72082 8.21634 9.8875 8.10769 10.0875 8.07148L15.3 7.01207Z" fill="url(#paint1_linear_151_1220)"/>
</g>
<defs>
<linearGradient id="paint0_linear_151_1220" x1="22.5513" y1="22.2329" x2="3.43158" y2="0.609211" gradientUnits="userSpaceOnUse">
<stop stop-color="#5AC8FA"/>
<stop offset="0.523465" stop-color="#AF52DE" stop-opacity="0.922227"/>
<stop offset="0.818643" stop-color="#FF2D55" stop-opacity="0.74"/>
<stop offset="1" stop-color="#FF3B30"/>
</linearGradient>
<linearGradient id="paint1_linear_151_1220" x1="2.87398" y1="2.92385" x2="21.7332" y2="20.48" gradientUnits="userSpaceOnUse">
<stop offset="0.0635411" stop-color="#FB413E"/>
<stop offset="0.381554" stop-color="#FF3C32"/>
<stop offset="0.520016" stop-color="#AD69E3" stop-opacity="0.75"/>
<stop offset="0.629314" stop-color="#5DC4F9"/>
<stop offset="0.962717" stop-color="#60C2F8"/>
</linearGradient>
<clipPath id="clip0_151_1220">
<rect width="24" height="24" fill="white"/>
</clipPath>
</defs>
</svg>
