<svg width="40" height="40" viewBox="0 0 24 24" fill="none" xmlns="http://www.w3.org/2000/svg">
<path d="M0 21.1107C0 22.3937 0.76882 23.1616 1.91116 23.1616C2.48077 23.1616 2.96011 22.9985 3.2278 22.5697V23.1616H4.27053V17.0504H3.18734V19.6485C2.94144 19.2197 2.48699 19.0277 1.91738 19.0277C0.803059 19.0245 0 19.8084 0 21.1107ZM3.22157 21.1107C3.22157 21.8434 2.736 22.3009 2.15394 22.3009C1.55009 22.3009 1.08631 21.8434 1.08631 21.1107C1.08631 20.3652 1.5532 19.898 2.15394 19.898C2.736 19.898 3.22157 20.3716 3.22157 21.1107Z" fill="white"/>
<path d="M7.64151 21.5842C7.517 22.0578 7.20262 22.2946 6.70771 22.2946C6.13188 22.2946 5.65876 21.9362 5.64631 21.3027H8.37609C8.41033 21.1459 8.42589 20.9795 8.42589 20.7971C8.42589 19.6613 7.67263 19.0213 6.56142 19.0213C5.37551 19.0213 4.56 19.8884 4.56 21.0659C4.56 22.3777 5.45955 23.1649 6.7046 23.1649C7.64462 23.1649 8.28271 22.7617 8.56284 21.9586L7.64151 21.5842ZM5.64631 20.5604C5.74902 20.1028 6.11943 19.834 6.56453 19.834C7.0501 19.834 7.38004 20.1028 7.38004 20.5252L7.37382 20.5604H5.64631Z" fill="white"/>
<path d="M11.6599 21.5842C11.5354 22.0578 11.221 22.2946 10.7261 22.2946C10.1503 22.2946 9.67716 21.9362 9.66471 21.3027H12.3945C12.4287 21.1459 12.4443 20.9795 12.4443 20.7971C12.4443 19.6613 11.691 19.0213 10.5798 19.0213C9.39391 19.0213 8.5784 19.8884 8.5784 21.0659C8.5784 22.3777 9.47795 23.1649 10.723 23.1649C11.663 23.1649 12.3011 22.7617 12.5812 21.9586L11.6599 21.5842ZM9.66471 20.5604C9.76743 20.1028 10.1378 19.834 10.5829 19.834C11.0685 19.834 11.3984 20.1028 11.3984 20.5252L11.3922 20.5604H9.66471Z" fill="white"/>
<path d="M16.2666 23.1681V22.1602H13.9913L16.2044 19.946V19.0245H12.7027V19.9844H14.841L12.6342 22.2082V23.1681H16.2666Z" fill="white"/>
<path d="M19.4322 21.5842C19.3076 22.0578 18.9933 22.2946 18.4984 22.2946C17.9225 22.2946 17.4494 21.9362 17.437 21.3027H20.1667C20.201 21.1459 20.2165 20.9795 20.2165 20.7971C20.2165 19.6613 19.4633 19.0213 18.3521 19.0213C17.1662 19.0213 16.3506 19.8884 16.3506 21.0659C16.3506 22.3777 17.2502 23.1649 18.4952 23.1649C19.4353 23.1649 20.0734 22.7617 20.3535 21.9586L19.4322 21.5842ZM17.437 20.5604C17.5397 20.1028 17.9101 19.834 18.3552 19.834C18.8408 19.834 19.1707 20.1028 19.1707 20.5252L19.1645 20.5604H17.437Z" fill="white"/>
<path d="M23.7326 0H18.6227V2.99878H23.7326V0Z" fill="#40AB5D"/>
<path d="M23.7326 4.15765H18.6227V7.15643H23.7326V4.15765Z" fill="url(#paint0_linear_151_1792)"/>
<path d="M23.7326 8.31534H18.6227V11.3141H23.7326V8.31534Z" fill="url(#paint1_linear_151_1792)"/>
<path d="M5.21095 12.473H0.101135V15.4718H5.21095V12.473Z" fill="url(#paint2_linear_151_1792)"/>
<path d="M11.3808 12.473H6.27103V15.4718H11.3808V12.473Z" fill="url(#paint3_linear_151_1792)"/>
<path d="M17.5626 12.473H12.4528V15.4718H17.5626V12.473Z" fill="url(#paint4_linear_151_1792)"/>
<path d="M23.7326 12.473H18.6227V15.4718H23.7326V12.473Z" fill="url(#paint5_linear_151_1792)"/>
<path d="M17.5626 8.31534H12.4528V11.3141H17.5626V8.31534Z" fill="url(#paint6_linear_151_1792)"/>
<path d="M11.3808 8.31534H6.27103V11.3141H11.3808V8.31534Z" fill="url(#paint7_linear_151_1792)"/>
<path d="M11.3808 4.15765H6.27103V7.15643H11.3808V4.15765Z" fill="url(#paint8_linear_151_1792)"/>
<path d="M22.7845 20.4547C22.7845 20.4963 22.7845 20.5731 22.7845 20.5731H23.8396C23.8396 20.5731 23.8396 20.3684 23.8396 20.2564C23.8396 19.5461 23.407 19.0309 22.6817 19.0309C22.2149 19.0309 21.8849 19.2645 21.7137 19.6516V19.0309H20.6243V23.168H21.7137V20.5027C21.7137 20.0804 21.9347 19.8468 22.274 19.8468C22.5853 19.85 22.7845 20.1508 22.7845 20.4547Z" fill="white"/>
<defs>
<linearGradient id="paint0_linear_151_1792" x1="21.2027" y1="7.18233" x2="21.1543" y2="4.11363" gradientUnits="userSpaceOnUse">
<stop stop-color="#358C7B"/>
<stop offset="0.5256" stop-color="#33A65E"/>
</linearGradient>
<linearGradient id="paint1_linear_151_1792" x1="18.5476" y1="11.1601" x2="23.8166" y2="8.48362" gradientUnits="userSpaceOnUse">
<stop stop-color="#222B90"/>
<stop offset="1" stop-color="#367B99"/>
</linearGradient>
<linearGradient id="paint2_linear_151_1792" x1="0.102068" y1="13.9735" x2="5.20761" y2="13.9735" gradientUnits="userSpaceOnUse">
<stop stop-color="#FF9900"/>
<stop offset="1" stop-color="#FF8000"/>
</linearGradient>
<linearGradient id="paint3_linear_151_1792" x1="6.27672" y1="13.9735" x2="11.3823" y2="13.9735" gradientUnits="userSpaceOnUse">
<stop stop-color="#FF8000"/>
<stop offset="1" stop-color="#CC1953"/>
</linearGradient>
<linearGradient id="paint4_linear_151_1792" x1="12.4514" y1="13.9735" x2="17.5569" y2="13.9735" gradientUnits="userSpaceOnUse">
<stop stop-color="#CC1953"/>
<stop offset="1" stop-color="#241284"/>
</linearGradient>
<linearGradient id="paint5_linear_151_1792" x1="18.62" y1="13.9735" x2="23.7255" y2="13.9735" gradientUnits="userSpaceOnUse">
<stop stop-color="#222B90"/>
<stop offset="1" stop-color="#3559A6"/>
</linearGradient>
<linearGradient id="paint6_linear_151_1792" x1="12.2498" y1="10.6233" x2="17.7611" y2="9.01656" gradientUnits="userSpaceOnUse">
<stop stop-color="#CC1953"/>
<stop offset="1" stop-color="#241284"/>
</linearGradient>
<linearGradient id="paint7_linear_151_1792" x1="6.09499" y1="8.81707" x2="11.5679" y2="10.803" gradientUnits="userSpaceOnUse">
<stop offset="0.00266984" stop-color="#FFCC00"/>
<stop offset="0.9999" stop-color="#CE1938"/>
</linearGradient>
<linearGradient id="paint8_linear_151_1792" x1="6.70585" y1="3.69161" x2="10.965" y2="7.60989" gradientUnits="userSpaceOnUse">
<stop offset="0.00266984" stop-color="#FFD100"/>
<stop offset="1" stop-color="#FD5A22"/>
</linearGradient>
</defs>
</svg>
