<svg width="40" height="40" viewBox="0 0 12 22" fill="none" xmlns="http://www.w3.org/2000/svg">
<path d="M3.22384 12.418H0.564172C0.134327 12.418 0 12.2528 0 11.8398V8.50813C0 8.06758 0.161192 7.92991 0.564172 7.92991H3.22384V5.50688C3.22384 4.40551 3.41189 3.3592 3.9492 2.39549C4.51337 1.40425 5.31933 0.743429 6.34021 0.357947C7.01185 0.110137 7.68348 0 8.40884 0H11.0416C11.4178 0 11.5789 0.165207 11.5789 0.550688V3.68961C11.5789 4.07509 11.4178 4.2403 11.0416 4.2403C10.3163 4.2403 9.59091 4.2403 8.86555 4.26783C8.14019 4.26783 7.76407 4.62578 7.76407 5.39675C7.73721 6.22278 7.76407 7.02128 7.76407 7.87484H10.8804C11.3103 7.87484 11.4715 8.04005 11.4715 8.4806V11.8123C11.4715 12.2528 11.3372 12.3905 10.8804 12.3905H7.76407V21.3667C7.76407 21.8348 7.62975 22 7.14617 22H3.78801C3.38503 22 3.22384 21.8348 3.22384 21.4218V12.418Z" fill="white"/>
</svg>
