<svg width="40" height="40" viewBox="0 0 20 20" fill="none" xmlns="http://www.w3.org/2000/svg">
<g clip-path="url(#clip0_111_382)">
<path d="M5.41381 0.5H14.5862C17.2952 0.5 19.5 2.70473 19.5 5.41381V14.5863C19.5 17.2952 17.2952 19.5 14.5863 19.5H5.41381C2.70472 19.5 0.5 17.2952 0.5 14.5863V5.41381C0.5 2.70473 2.70473 0.5 5.41381 0.5ZM4.03139 9.99998C4.03139 13.2916 6.7084 15.9686 9.99998 15.9686C13.2916 15.9686 15.9686 13.2916 15.9686 9.99998C15.9686 8.41431 15.3473 6.97126 14.3354 5.9014C14.6882 6.16493 15.1258 6.32106 15.5993 6.32106C16.7665 6.32106 17.7154 5.37248 17.7154 4.20516C17.7154 3.03791 16.7666 2.08911 15.5993 2.08911C14.432 2.08911 13.4834 3.03797 13.4834 4.20516C13.4834 4.7047 13.6572 5.1642 13.9474 5.52644C12.8947 4.5964 11.5122 4.03139 9.99998 4.03139C6.7084 4.03139 4.03139 6.7084 4.03139 9.99998Z" fill="white" stroke="white"/>
<path d="M10.0011 6.83463C8.25589 6.83463 6.83594 8.25447 6.83594 9.99977C6.83594 11.7449 8.25589 13.1649 10.0011 13.1649C11.7464 13.1649 13.1662 11.7449 13.1662 9.99977C13.1662 8.25447 11.7464 6.83463 10.0011 6.83463Z" fill="white"/>
<path d="M15.5997 3.76172C15.3552 3.76172 15.1562 3.96069 15.1562 4.20514C15.1562 4.44958 15.3552 4.64856 15.5997 4.64856C15.8443 4.64856 16.0432 4.44974 16.0432 4.20514C16.0432 3.96054 15.8443 3.76172 15.5997 3.76172Z" fill="white"/>
</g>
<defs>
<clipPath id="clip0_111_382">
<rect width="20" height="20" fill="white"/>
</clipPath>
</defs>
</svg>
