<svg width="40" height="40" viewBox="0 0 22 22" fill="none" xmlns="http://www.w3.org/2000/svg">
<path d="M11 22C17.0751 22 22 17.0751 22 11C22 4.92487 17.0751 0 11 0C4.92487 0 0 4.92487 0 11C0 17.0751 4.92487 22 11 22Z" fill="white"/>
<path d="M15.4663 16.1848C15.2802 16.1848 15.1647 16.128 14.9914 16.0262C12.224 14.3579 9.00376 14.2882 5.82293 14.94C5.64968 14.9849 5.42326 15.0555 5.29493 15.0555C5.20247 15.0568 5.11067 15.0396 5.02497 15.0049C4.93928 14.9701 4.86143 14.9185 4.79604 14.8531C4.73065 14.7877 4.67905 14.7099 4.64429 14.6242C4.60953 14.5385 4.59232 14.4467 4.59368 14.3542C4.59368 13.8968 4.8641 13.6796 5.19776 13.609C8.83051 12.8069 12.543 12.8775 15.7092 14.7713C15.9796 14.9446 16.14 15.0995 16.14 15.5028C16.1415 15.5921 16.1251 15.6808 16.0919 15.7636C16.0586 15.8465 16.0092 15.9219 15.9465 15.9854C15.8837 16.0489 15.8089 16.0993 15.7265 16.1335C15.644 16.1678 15.5555 16.1852 15.4663 16.1848ZM16.6607 13.2762C16.4297 13.2762 16.2738 13.1745 16.1134 13.0902C13.3405 11.4493 9.20818 10.7875 5.53051 11.7857C5.31785 11.8435 5.20235 11.9012 5.00251 11.9012C4.52768 11.9012 4.14268 11.5153 4.14268 11.0414C4.14268 10.5675 4.37368 10.2522 4.83018 10.1238C6.0631 9.77732 7.3226 9.51974 9.16785 9.51974C12.0462 9.51974 14.8273 10.2338 17.0191 11.5382C17.3784 11.7509 17.5205 12.0268 17.5205 12.4118C17.5211 12.5251 17.4993 12.6374 17.4564 12.7423C17.4134 12.8471 17.3502 12.9425 17.2703 13.0228C17.1904 13.1031 17.0954 13.1669 16.9908 13.2104C16.8862 13.2539 16.774 13.2762 16.6607 13.2762ZM4.16926 6.41499C5.73035 5.95757 7.47843 5.74124 9.38143 5.74124C12.6191 5.74124 16.0126 6.41499 18.4922 7.86149C18.8387 8.06132 19.0642 8.33632 19.0642 8.86341C19.0642 9.46657 18.5756 9.89649 18.0357 9.89649L18.0348 9.89557C17.8038 9.89557 17.6617 9.83782 17.4618 9.72232C14.3048 7.83766 8.65726 7.38574 5.00343 8.40599C4.84301 8.44999 4.64318 8.52057 4.43051 8.52057C3.84476 8.52057 3.39743 8.06316 3.39743 7.47374C3.39743 6.87149 3.77051 6.53049 4.16926 6.41499Z" fill="#121212"/>
</svg>
