<svg width="40" height="40" viewBox="0 0 27 16" fill="none" xmlns="http://www.w3.org/2000/svg">
<path d="M23.501 6.32254C23.8779 5.83529 24.1772 5.44433 24.3982 5.14937C25.9897 3.03338 26.6796 1.68166 26.4681 1.09234L26.3852 0.954324C26.3301 0.871423 26.1872 0.795293 25.9574 0.726383C25.7273 0.657522 25.433 0.646519 25.0743 0.691978L21.0999 0.72001C21.008 0.710855 20.9153 0.712995 20.8238 0.726383C20.7318 0.740374 20.6721 0.754415 20.6443 0.767808C20.6166 0.781849 20.5938 0.793102 20.5755 0.802263L20.5204 0.843689C20.4744 0.871124 20.4238 0.91957 20.3687 0.988779C20.3134 1.05794 20.2671 1.1381 20.2306 1.23041C19.7982 2.34353 19.3061 3.37867 18.754 4.3355C18.4135 4.90595 18.1006 5.40082 17.8157 5.81886C17.5305 6.23784 17.2913 6.54595 17.0981 6.74337C16.9049 6.94114 16.73 7.10017 16.5737 7.21937C16.4171 7.33941 16.2976 7.3897 16.2151 7.37142C16.1365 7.35431 16.0583 7.33582 15.9804 7.31596C15.8516 7.23341 15.7479 7.12093 15.6699 6.97803C15.5917 6.83578 15.5389 6.65623 15.5111 6.43989C15.4837 6.22385 15.4673 6.03739 15.463 5.88075C15.4581 5.72445 15.4606 5.50383 15.47 5.21828C15.4792 4.93303 15.4837 4.7402 15.4837 4.63872C15.4837 4.28949 15.4907 3.90984 15.5045 3.50031C15.5182 3.09108 15.5298 2.76655 15.5389 2.52731C15.5481 2.28841 15.5526 2.03518 15.5526 1.76825C15.5526 1.50192 15.5365 1.29225 15.5041 1.14024C15.4716 0.988365 15.4231 0.840359 15.3594 0.698699C15.2948 0.556398 15.2006 0.445763 15.0763 0.367792C14.952 0.289471 14.798 0.227631 14.6141 0.181276C14.1262 0.0706417 13.5052 0.0115401 12.751 0.00183097C11.0397 -0.0158447 9.94028 0.0944416 9.45273 0.333336C9.25954 0.43481 9.08463 0.57253 8.92834 0.747444C8.76258 0.950092 8.73973 1.06068 8.85948 1.07835C9.4116 1.16125 9.80231 1.35932 10.0323 1.67195L10.1152 1.83741C10.1795 1.95745 10.2439 2.16896 10.3084 2.47244C10.3728 2.77596 10.4142 3.11175 10.4328 3.47985C10.4788 4.15142 10.4788 4.72615 10.4328 5.20489C10.3868 5.68358 10.3432 6.05596 10.3018 6.32229C10.2603 6.58922 10.1981 6.80526 10.1155 6.97071C10.0326 7.13676 9.97752 7.23794 9.94979 7.27478C9.92206 7.31133 9.8992 7.33448 9.88093 7.34369C9.76201 7.38936 9.63569 7.41271 9.5083 7.41255C9.37939 7.41255 9.22305 7.34792 9.03902 7.21902C8.85495 7.09075 8.6639 6.9134 8.46643 6.6879C8.26836 6.46275 8.0456 6.14738 7.79695 5.74238C7.54859 5.33803 7.29078 4.85929 7.02415 4.30747L6.80353 3.90705C6.66551 3.64988 6.47685 3.27476 6.23766 2.78263C5.99846 2.2905 5.78665 1.81455 5.60293 1.35414C5.52919 1.16125 5.41885 1.01407 5.27172 0.9126L5.20286 0.871174C5.15685 0.834578 5.08311 0.795293 4.98194 0.754116C4.87976 0.712472 4.77327 0.682329 4.66443 0.664244L0.883184 0.691679C0.49681 0.691679 0.234762 0.779459 0.096743 0.954324L0.0415751 1.03693C0.0136924 1.08323 0 1.15697 0 1.25785C0 1.35932 0.0277333 1.48335 0.0829012 1.63023C0.635028 2.92772 1.23535 4.17891 1.88377 5.38374C2.53255 6.58922 3.09597 7.56003 3.57436 8.29594C4.05275 9.03244 4.5403 9.72657 5.03731 10.3799C5.53432 11.0332 5.86308 11.4515 6.02396 11.6353C6.18483 11.8197 6.3113 11.9577 6.40336 12.0494L6.74831 12.3809C6.96893 12.6016 7.29347 12.866 7.72132 13.1744C8.14912 13.4828 8.62267 13.7863 9.14283 14.0849C9.6624 14.3842 10.2676 14.6276 10.9574 14.8166C11.6473 15.0055 12.3189 15.0813 12.9722 15.0441H14.5592C14.8813 15.0167 15.125 14.9159 15.2905 14.7406L15.3456 14.6718C15.3822 14.6169 15.4169 14.5316 15.4492 14.4167C15.4812 14.3018 15.4977 14.175 15.4977 14.0373C15.4882 13.6418 15.5185 13.2847 15.5873 12.9678C15.6562 12.6503 15.7345 12.4114 15.822 12.2499C15.9094 12.0893 16.0081 11.9534 16.1187 11.8428C16.2291 11.7321 16.307 11.666 16.3533 11.6429C16.3994 11.6203 16.4363 11.6042 16.4637 11.5944C16.6843 11.5209 16.9442 11.5923 17.2435 11.8083C17.5424 12.025 17.8231 12.2913 18.0854 12.6088C18.3474 12.9263 18.6625 13.2825 19.0306 13.6783C19.3984 14.0738 19.7205 14.3682 19.9966 14.5614L20.2727 14.7275C20.4566 14.8375 20.6956 14.9386 20.9902 15.031C21.2846 15.1227 21.5424 15.1459 21.763 15.0999L25.2959 15.0444C25.6454 15.0444 25.9169 14.9871 26.1102 14.8719C26.3033 14.7576 26.4183 14.6303 26.4551 14.4926C26.4916 14.3545 26.4941 14.1988 26.4621 14.0236C26.4299 13.849 26.3975 13.7271 26.3656 13.6582C26.3333 13.5894 26.3033 13.5315 26.2756 13.4858C25.8155 12.6578 24.937 11.641 23.6398 10.4358L23.6121 10.4084L23.5984 10.3944L23.5847 10.381H23.5708C22.9818 9.81967 22.6094 9.44241 22.4531 9.24893C22.1679 8.88147 22.1033 8.50879 22.2599 8.13158C22.3696 7.84553 22.7834 7.24282 23.501 6.32254Z" fill="white"/>
</svg>
