<svg width="40" height="40" viewBox="4 4 31 31" fill="none" xmlns="http://www.w3.org/2000/svg">
<path d="M19.2346 30.5608C24.8871 30.5608 29.4693 25.984 29.4693 20.3382C29.4693 14.6924 24.8871 10.1156 19.2346 10.1156C13.5822 10.1156 9 14.6924 9 20.3382C9 25.984 13.5822 30.5608 19.2346 30.5608Z" fill="#FFCC00"/>
<path fill-rule="evenodd" clip-rule="evenodd" d="M24.3598 9.91898V19.4815L24.3372 19.489V19.5018C24.3372 20.4366 24.2695 21.309 24.1423 21.7547C23.5326 23.8961 21.5597 25.4497 19.2203 25.4497C16.3938 25.4497 14.1327 23.169 14.1327 20.3456C14.1327 17.5229 16.3938 15.2422 19.2203 15.2422C20.5518 15.2422 21.7645 15.7503 22.6752 16.5828C22.9726 16.8552 23.2375 17.1616 23.4641 17.4965C23.4009 17.197 23.3391 16.8199 23.3391 16.4969V5L29.9999 7.03835V11.6547L24.3598 9.91898Z" fill="#FF3333"/>
</svg>
