<svg width="40" height="40" viewBox="0 0 24 24" fill="none" xmlns="http://www.w3.org/2000/svg">
<g clip-path="url(#clip0_151_1658)">
<circle cx="11.9999" cy="12.0004" r="8" fill="white"/>
<path d="M12 0.600006C5.70385 0.600006 0.600006 5.71753 0.600006 12.0302C1.20049 27.1922 22.8017 27.1879 23.4 12.03C23.4 5.71753 18.2959 0.600006 12 0.600006ZM12 18.5758C8.39137 18.5758 5.45521 15.6398 5.45521 12.031C5.63281 7.55209 8.97217 5.51881 11.9998 5.51881C15.0276 5.51905 18.3677 7.55233 18.5443 12.0163C18.5448 15.6401 15.6086 18.5758 12 18.5758Z" fill="#FF0000"/>
<path d="M12.0005 6.26474C8.17344 6.2645 6.31152 9.26138 6.20088 12.0459C6.20112 15.2287 8.80248 17.8301 12 17.8301C15.1975 17.8301 17.7989 15.2287 17.7989 12.0312C17.6892 9.26186 15.8275 6.26522 12.0005 6.26474Z" fill="#FF0000"/>
<path d="M9.85325 12.6071C9.85301 13.2251 9.85349 14.4952 9.85325 15.1175L15.0857 11.8975L9.85325 8.94571V12.6071Z" fill="#F1F1F1"/>
</g>
<defs>
<clipPath id="clip0_151_1658">
<rect width="24" height="24" fill="white"/>
</clipPath>
</defs>
</svg>
