<svg width="40" height="40" viewBox="0 0 88 62" fill="none" xmlns="http://www.w3.org/2000/svg">
<path d="M56.4963 33.1034L38.0339 42.7525C37.6281 42.9646 37.1769 43.0754 36.719 43.0753C35.9662 43.0752 35.2442 42.7761 34.7118 42.2438C34.1795 41.7114 33.8804 40.9894 33.8803 40.2366V21.0003C33.8804 20.5128 34.0059 20.0334 34.245 19.6085C34.4841 19.1836 34.8285 18.8274 35.2452 18.5742C35.6619 18.3211 36.1368 18.1796 36.6241 18.1633C37.1114 18.147 37.5947 18.2564 38.0273 18.4812L56.4898 28.068C56.9507 28.3072 57.3371 28.6682 57.6071 29.1118C57.877 29.5554 58.0201 30.0645 58.0208 30.5837C58.0214 31.103 57.8797 31.6125 57.6109 32.0567C57.3421 32.501 56.9566 32.863 56.4963 33.1034Z" fill="white"/>
<path fill-rule="evenodd" clip-rule="evenodd" d="M84.5701 5.35093C81.3935 1.57484 75.5287 0.034668 64.3283 0.034668H23.6708C12.2141 0.034668 6.24989 1.67436 3.08533 5.69451C0 9.61395 0 15.3893 0 23.3827V38.6177C0 54.1031 3.66076 61.9655 23.6708 61.9655H64.3285C74.0415 61.9655 79.4236 60.6063 82.9056 57.274C86.4765 53.8568 88 48.2772 88 38.6177V23.3827C88 14.9531 87.7613 9.1437 84.5701 5.35093ZM38.0339 42.7525L56.4963 33.1034C56.9566 32.863 57.3421 32.501 57.6109 32.0567C57.8797 31.6125 58.0214 31.103 58.0208 30.5837C58.0201 30.0645 57.877 29.5554 57.6071 29.1118C57.3371 28.6682 56.9507 28.3072 56.4898 28.068L38.0273 18.4812C37.5947 18.2564 37.1114 18.147 36.6241 18.1633C36.1368 18.1796 35.6619 18.3211 35.2452 18.5742C34.8285 18.8274 34.4841 19.1836 34.245 19.6085C34.0059 20.0334 33.8804 20.5128 33.8803 21.0003V40.2366C33.8804 40.9894 34.1795 41.7114 34.7118 42.2438C35.2442 42.7761 35.9662 43.0752 36.719 43.0753C37.1769 43.0754 37.6281 42.9646 38.0339 42.7525Z" fill="#C98708"/>
</svg>
