<svg width="40" height="40" viewBox="0 0 24 18" fill="none" xmlns="http://www.w3.org/2000/svg">
<path d="M15.4081 9.61104L10.3729 12.2426C10.2622 12.3005 10.1392 12.3307 10.0143 12.3306C9.80896 12.3306 9.61205 12.249 9.46686 12.1039C9.32168 11.9587 9.24011 11.7618 9.24009 11.5564V6.31019C9.2401 6.17722 9.27435 6.04649 9.33955 5.9306C9.40474 5.81471 9.49869 5.71757 9.61234 5.64854C9.72598 5.5795 9.85549 5.5409 9.98839 5.53645C10.1213 5.532 10.2531 5.56186 10.3711 5.62315L15.4063 8.23774C15.532 8.30297 15.6374 8.40144 15.711 8.52241C15.7846 8.64338 15.8237 8.78223 15.8238 8.92385C15.824 9.06546 15.7854 9.20441 15.7121 9.32558C15.6388 9.44674 15.5336 9.54548 15.4081 9.61104Z" fill="#121212"/>
<path fill-rule="evenodd" clip-rule="evenodd" d="M23.0646 2.04218C22.1982 1.01233 20.5987 0.592285 17.5441 0.592285H6.45567C3.33112 0.592285 1.70452 1.03947 0.841453 2.13588C0 3.20482 0 4.77991 0 6.95993V11.1149C0 15.3382 0.99839 17.4825 6.45567 17.4825H17.5441C20.1931 17.4825 21.661 17.1118 22.6106 16.203C23.5845 15.2711 24 13.7494 24 11.1149V6.95993C24 4.66094 23.9349 3.07657 23.0646 2.04218ZM10.3729 12.2426L15.4081 9.61104C15.5336 9.54548 15.6388 9.44674 15.7121 9.32558C15.7854 9.20441 15.824 9.06546 15.8238 8.92385C15.8237 8.78223 15.7846 8.64338 15.711 8.52241C15.6374 8.40144 15.532 8.30297 15.4063 8.23774L10.3711 5.62315C10.2531 5.56186 10.1213 5.532 9.98839 5.53645C9.85549 5.5409 9.72598 5.5795 9.61234 5.64854C9.49869 5.71757 9.40474 5.81471 9.33955 5.9306C9.27435 6.04649 9.2401 6.17722 9.24009 6.31019V11.5564C9.24011 11.7618 9.32168 11.9587 9.46686 12.1039C9.61205 12.249 9.80896 12.3306 10.0143 12.3306C10.1392 12.3307 10.2622 12.3005 10.3729 12.2426Z" fill="white"/>
</svg>
