<svg width="40" height="40" viewBox="8 8 23 23" fill="none" xmlns="http://www.w3.org/2000/svg">
<path d="M19 30C25.0751 30 30 25.0751 30 19C30 12.9249 25.0751 8 19 8C12.9249 8 8 12.9249 8 19C8 25.0751 12.9249 30 19 30Z" fill="white"/>
<path d="M14.6664 12.1635C13.5684 12.549 12.6222 13.4835 12.225 14.5464C11.9914 15.1655 11.9797 15.3758 12.0148 19.2889L12.0498 23.3889L12.4003 24.008C12.8441 24.8374 13.7085 25.5966 14.5262 25.9003C15.157 26.1339 15.3555 26.1456 19.2219 26.1106L23.2635 26.0755L23.8826 25.7251C24.712 25.2812 25.4713 24.4168 25.775 23.5992C26.0086 22.9684 26.0203 22.7698 25.9852 18.845L25.9502 14.745L25.5997 14.1259C25.1559 13.3082 24.2915 12.5373 23.4855 12.2453C22.8898 12.0117 22.5977 12 18.965 12C16.1031 12.0117 14.9818 12.0467 14.6664 12.1635ZM23.2051 13.8689C23.4621 13.9974 23.8126 14.3245 23.9878 14.5932L24.3148 15.0721L24.3499 18.9618C24.3849 22.6997 24.3732 22.875 24.1396 23.3305C23.906 23.7861 23.2986 24.2767 22.7846 24.4285C22.551 24.4986 22.516 24.4402 22.3875 23.716C21.6749 19.6276 18.6145 16.4387 14.6547 15.6678C14.0823 15.5627 13.6268 15.4225 13.6268 15.3641C13.6268 15.3057 13.7319 15.0604 13.8604 14.8034C14.094 14.3595 14.5262 13.9624 15.0402 13.7638C15.192 13.7054 16.9909 13.647 19.035 13.647C22.5393 13.6353 22.773 13.647 23.2051 13.8689ZM14.678 17.3265C15.7177 17.5718 17.1661 18.296 18.0422 19.0202C18.4393 19.3473 18.7664 19.651 18.7664 19.6977C18.7664 19.7445 18.9883 20.0598 19.257 20.4103C19.8527 21.2046 20.4601 22.5012 20.6937 23.4707C20.9507 24.5804 21.0208 24.5103 19.7359 24.4752L18.6145 24.4402L18.451 23.751C18.1473 22.4077 17.4231 21.4265 15.7177 20.0248C15.4957 19.8496 14.935 19.5809 14.4795 19.4408L13.6268 19.1955V18.1675C13.6268 17.0111 13.5567 17.0578 14.678 17.3265ZM14.643 21.3447C14.9117 21.4616 15.3672 21.7769 15.6592 22.0456C16.2199 22.5596 16.8974 23.7627 16.8974 24.2299C16.8974 24.4869 16.8624 24.4986 16.0798 24.4986C15.0518 24.4986 14.4561 24.2183 14.0122 23.5408C13.7319 23.1203 13.6852 22.9217 13.6384 22.0106L13.6034 20.971L13.8721 21.0527C14.0239 21.0994 14.3743 21.2279 14.643 21.3447Z" fill="black"/>
</svg>
