<svg width="194" height="50" viewBox="0 0 194 50" fill="none" xmlns="http://www.w3.org/2000/svg">
<path d="M56.0663 22.0095V15.2887C56.0663 15.0034 56.0199 14.8147 55.9269 14.7222C55.8337 14.6297 55.6994 14.5592 55.5235 14.5079C55.4224 14.4751 55.3254 14.4536 55.2332 14.4453C55.1321 14.4286 55.073 14.42 55.0562 14.42C55.0057 14.4117 54.9602 14.4079 54.9175 14.4079C54.7915 14.4079 54.7286 14.3536 54.7286 14.2441C54.7286 14.16 54.8209 14.1181 55.0057 14.1181H57.6052L61.3149 21.3805L65.3139 14.1181H67.7751C67.9606 14.1181 68.0525 14.16 68.0525 14.2441C68.0525 14.3536 67.9896 14.4079 67.8632 14.4079C67.8209 14.4079 67.7751 14.4117 67.7245 14.42C67.6993 14.4286 67.6402 14.4375 67.5479 14.4453C67.4636 14.4536 67.3631 14.4751 67.2453 14.5079C67.0765 14.5592 66.9464 14.6343 66.8542 14.7351C66.7616 14.8354 66.7155 15.0203 66.7155 15.2887V22.0095C66.7155 22.2947 66.7616 22.486 66.8542 22.5825C66.9464 22.6788 67.0765 22.7521 67.2453 22.8024C67.371 22.8445 67.5097 22.8698 67.6613 22.8782C67.9223 22.8949 68.0525 22.9577 68.0525 23.0664C68.0525 23.1506 67.9606 23.1925 67.7751 23.1925H64.0275C63.8338 23.1925 63.7378 23.1506 63.7378 23.0664C63.7378 22.9577 63.8673 22.8949 64.1279 22.8782C64.2874 22.8698 64.4271 22.8445 64.545 22.8024C64.7213 22.7521 64.8545 22.6808 64.9419 22.5883C65.0307 22.4963 65.0748 22.3039 65.0748 22.0095V16.6354L65.1629 15.7041H65.0748L61.1127 23.0287C61.0628 23.1381 60.989 23.1925 60.8923 23.1925C60.7957 23.1925 60.7092 23.1381 60.6334 23.0287L56.659 15.578H56.5831L56.659 16.4467V22.0095C56.659 22.2612 56.7099 22.461 56.8103 22.6078C56.9114 22.7546 57.1765 22.8445 57.6052 22.8782C57.8651 22.8949 57.9956 22.9577 57.9956 23.0664C57.9956 23.1506 57.8996 23.1925 57.7056 23.1925H55.0057C54.8209 23.1925 54.7286 23.1506 54.7286 23.0664C54.7286 22.9577 54.855 22.8949 55.1068 22.8782C55.2663 22.8698 55.4057 22.8445 55.5235 22.8024C55.6994 22.7521 55.8337 22.6828 55.9269 22.5949C56.0199 22.5068 56.0663 22.3114 56.0663 22.0095Z" fill="url(#paint0_linear_1_35)"/>
<path d="M73.7557 14.5461V18.1833H74.5C74.9294 18.1833 75.2717 18.1666 75.5279 18.133C75.7848 18.0999 76.0266 18.0029 76.2541 17.8437C76.6237 17.5837 76.8092 17.2396 76.8092 16.8121V16.7734C76.8092 16.6395 76.8799 16.5727 77.0237 16.5727C77.1498 16.5727 77.2126 16.6142 77.2126 16.6984V20.1213C77.2126 20.1971 77.1498 20.239 77.0237 20.2473C76.9564 20.256 76.9096 20.2435 76.8844 20.21C76.8844 20.2016 76.8827 20.195 76.8786 20.1913C76.8748 20.1867 76.8676 20.1847 76.8598 20.1847C76.8256 20.1594 76.8092 20.1266 76.8092 20.0839V20.0081C76.8003 19.7236 76.7166 19.4757 76.5564 19.2655C76.3552 18.9888 76.0895 18.8109 75.7619 18.7313C75.434 18.6517 75.0131 18.6116 74.5 18.6116H73.7557V21.4809C73.7557 21.7745 73.7707 22.0029 73.7998 22.1666C73.8288 22.3309 73.9197 22.4714 74.0707 22.5883C74.2049 22.6725 74.3737 22.7227 74.5759 22.7397C74.7778 22.7566 75.148 22.765 75.6867 22.765C76.4092 22.765 77.0439 22.6937 77.5911 22.5507C78.138 22.4084 78.634 22.0643 79.0801 21.5185C79.1812 21.376 79.2605 21.2591 79.3199 21.1658C79.379 21.0741 79.4354 21.001 79.4907 20.946C79.545 20.8917 79.6062 20.8646 79.6728 20.8646C79.7148 20.8646 79.7551 20.8767 79.7927 20.902C79.8303 20.9273 79.8504 20.9609 79.8504 21.0029C79.8504 21.0197 79.848 21.0322 79.8439 21.0405C79.8395 21.0488 79.8367 21.0571 79.8367 21.0657L79.3954 22.9408C79.3623 23.1091 79.2694 23.1925 79.1184 23.1925H71.0807C70.8952 23.1925 70.8026 23.1506 70.8026 23.0664C70.8026 22.9577 70.9297 22.8949 71.1815 22.8782C71.3406 22.8698 71.4797 22.8445 71.5982 22.8024C71.7916 22.7352 71.9282 22.6601 72.0081 22.576C72.0877 22.4921 72.1318 22.3039 72.1403 22.0095L72.1533 21.6069V15.7041L72.1403 15.2887C72.1403 15.0034 72.0942 14.8126 72.0016 14.7164C71.9087 14.6194 71.7745 14.5502 71.5982 14.5079C71.4971 14.4751 71.3997 14.4536 71.3079 14.4453C71.2067 14.4286 71.1483 14.42 71.1306 14.42C71.0807 14.4117 71.0342 14.4079 70.9919 14.4079C70.8662 14.4079 70.8026 14.3536 70.8026 14.2441C70.8026 14.16 70.8952 14.1181 71.0807 14.1181H78.525C78.634 14.1181 78.7013 14.1413 78.7266 14.1873C78.7518 14.2338 78.7727 14.2985 78.7898 14.3826L79.3831 16.2456C79.3913 16.2622 79.3954 16.2746 79.3954 16.283C79.3954 16.3418 79.3623 16.3837 79.2946 16.4085C79.2441 16.4343 79.1935 16.4343 79.143 16.4085C79.101 16.3923 79.0128 16.2913 78.8779 16.1063C78.592 15.6871 78.1886 15.3223 77.6666 15.012C77.1457 14.7015 76.3255 14.5461 75.2068 14.5461H73.7557Z" fill="url(#paint1_linear_1_35)"/>
<path d="M87.3822 14.5461V22.0095C87.3822 22.2861 87.4283 22.4714 87.5216 22.5631C87.6138 22.6555 87.748 22.7352 87.925 22.8024C88.0592 22.8445 88.1942 22.8698 88.3284 22.8782C88.5983 22.8949 88.7325 22.9577 88.7325 23.0664C88.7325 23.1506 88.6317 23.1925 88.4295 23.1925H84.6945C84.5012 23.1925 84.4045 23.1506 84.4045 23.0664C84.4045 22.9577 84.5388 22.8949 84.8086 22.8782C84.9343 22.8698 85.0686 22.8445 85.2121 22.8024C85.389 22.7435 85.5232 22.6659 85.6158 22.5696C85.7087 22.4731 85.7545 22.2861 85.7545 22.0095V14.5461H85.2626C84.312 14.5461 83.5991 14.6717 83.1239 14.9238C82.6484 15.1755 82.2737 15.4731 82.0014 15.8173C81.7271 16.1614 81.5194 16.3335 81.3763 16.3335C81.2076 16.3335 81.1239 16.2875 81.1239 16.195C81.1239 16.1867 81.1252 16.1801 81.13 16.1763C81.1345 16.1718 81.1365 16.166 81.1365 16.1569L81.7169 14.2815C81.7596 14.1724 81.7965 14.1057 81.8303 14.0804C81.8638 14.0551 81.9191 14.0423 81.9943 14.0423C82.0868 14.0423 82.1582 14.0448 82.2088 14.0494C82.259 14.0534 82.3205 14.0597 82.3919 14.0675C82.4633 14.0766 82.548 14.085 82.644 14.0928C82.7413 14.1019 82.8359 14.1094 82.9282 14.1181H90.2219C90.3223 14.1094 90.4227 14.1019 90.5235 14.0928C90.6253 14.085 90.7114 14.0766 90.7828 14.0675C90.8535 14.0597 90.9105 14.0534 90.9532 14.0494C90.9949 14.0448 91.0622 14.0423 91.1551 14.0423C91.2808 14.0423 91.3652 14.1226 91.4072 14.2815L92.0128 16.1569C92.0207 16.1743 92.0258 16.1867 92.0258 16.195C92.0258 16.2875 91.937 16.3335 91.7607 16.3335C91.7355 16.3335 91.6555 16.2456 91.5213 16.0689C91.2094 15.6245 90.7913 15.2597 90.2652 14.9739C89.7395 14.6891 88.9262 14.5461 87.8232 14.5461H87.3822Z" fill="url(#paint2_linear_1_35)"/>
<path d="M99.8872 19.4421L98.1079 15.5029L96.2776 19.4421H99.8872ZM100.088 19.8451H96.1014L95.3441 21.468C95.2098 21.7791 95.1425 22.0269 95.1425 22.2111C95.1425 22.6389 95.4489 22.8741 96.0631 22.9163C96.1895 22.9163 96.252 22.9623 96.252 23.054C96.252 23.1465 96.1851 23.1925 96.0508 23.1925H93.149C93.0817 23.1925 93.0479 23.1506 93.0479 23.0664C93.0479 22.9835 93.107 22.9284 93.2248 22.9034C93.4766 22.8367 93.6873 22.7397 93.8551 22.6136C94.2001 22.3536 94.5119 21.9299 94.789 21.3425L97.7161 14.9486L97.5897 14.6717C97.5812 14.6639 97.5774 14.6426 97.5774 14.609C97.5774 14.6004 97.615 14.5837 97.6915 14.5592C97.7588 14.5332 97.8213 14.4958 97.8807 14.4453L98.0071 14.3703C98.2083 14.2358 98.3678 14.1057 98.4864 13.9796C98.5701 13.8962 98.6415 13.8535 98.7006 13.8535C98.7764 13.8535 98.8355 13.9 98.8768 13.9925L102.599 21.7073C102.843 22.1944 103.037 22.5133 103.179 22.6639C103.339 22.8069 103.546 22.8949 103.798 22.9284C103.925 22.937 103.987 22.9789 103.987 23.054C103.987 23.1465 103.95 23.1925 103.873 23.1925H100.1C100.025 23.1925 99.9877 23.1465 99.9877 23.054C99.9877 22.9537 100.063 22.9034 100.214 22.9034C100.845 22.8698 101.161 22.6639 101.161 22.2861C101.161 22.1522 101.098 21.9597 100.972 21.7073L100.088 19.8451Z" fill="url(#paint3_linear_1_35)"/>
<path d="M107.204 22.0095V15.2887C107.204 15.0034 107.158 14.8147 107.065 14.7222C106.973 14.6297 106.839 14.5592 106.662 14.5079C106.561 14.4751 106.464 14.4536 106.372 14.4453C106.271 14.4286 106.212 14.42 106.195 14.42C106.145 14.4117 106.098 14.4079 106.056 14.4079C105.93 14.4079 105.867 14.3536 105.867 14.2441C105.867 14.16 105.959 14.1181 106.145 14.1181H108.744L112.453 21.3805L116.453 14.1181H118.913C119.098 14.1181 119.191 14.16 119.191 14.2441C119.191 14.3536 119.128 14.4079 119.001 14.4079C118.96 14.4079 118.913 14.4117 118.863 14.42C118.838 14.4286 118.779 14.4375 118.686 14.4453C118.601 14.4536 118.501 14.4751 118.383 14.5079C118.215 14.5592 118.085 14.6343 117.993 14.7351C117.899 14.8354 117.854 15.0203 117.854 15.2887V22.0095C117.854 22.2947 117.899 22.486 117.993 22.5825C118.085 22.6788 118.215 22.7521 118.383 22.8024C118.51 22.8445 118.649 22.8698 118.8 22.8782C119.061 22.8949 119.191 22.9577 119.191 23.0664C119.191 23.1506 119.098 23.1925 118.913 23.1925H115.165C114.973 23.1925 114.875 23.1506 114.875 23.0664C114.875 22.9577 115.006 22.8949 115.267 22.8782C115.427 22.8698 115.566 22.8445 115.684 22.8024C115.86 22.7521 115.993 22.6808 116.081 22.5883C116.169 22.4963 116.213 22.3039 116.213 22.0095V16.6354L116.301 15.7041H116.213L112.251 23.0287C112.201 23.1381 112.127 23.1925 112.03 23.1925C111.934 23.1925 111.848 23.1381 111.772 23.0287L107.797 15.578H107.722L107.797 16.4467V22.0095C107.797 22.2612 107.847 22.461 107.949 22.6078C108.05 22.7546 108.315 22.8445 108.744 22.8782C109.004 22.8949 109.135 22.9577 109.135 23.0664C109.135 23.1506 109.038 23.1925 108.844 23.1925H106.145C105.959 23.1925 105.867 23.1506 105.867 23.0664C105.867 22.9577 105.994 22.8949 106.246 22.8782C106.405 22.8698 106.544 22.8445 106.662 22.8024C106.839 22.7521 106.973 22.6828 107.065 22.5949C107.158 22.5068 107.204 22.3114 107.204 22.0095Z" fill="url(#paint4_linear_1_35)"/>
<path d="M123.468 18.6613C123.468 20.4576 123.889 21.6342 124.729 22.1919C125.571 22.7501 126.371 23.0287 127.127 23.0287C127.758 23.0287 128.351 22.889 128.906 22.6078C129.461 22.3264 129.914 21.8541 130.263 21.1918C130.612 20.5288 130.786 19.6854 130.786 18.6613C130.786 17.6213 130.612 16.7719 130.263 16.1129C129.914 15.4544 129.461 14.9848 128.906 14.7035C128.351 14.4225 127.758 14.2815 127.127 14.2815C126.353 14.2815 125.55 14.561 124.718 15.1187C123.884 15.6768 123.468 16.858 123.468 18.6613ZM121.639 18.6613C121.639 17.8735 121.842 17.1097 122.251 16.3709C122.658 15.6328 123.274 15.0287 124.099 14.5592C124.923 14.089 125.933 13.8535 127.127 13.8535C128.254 13.8535 129.232 14.0779 130.061 14.5274C130.889 14.9764 131.52 15.5656 131.954 16.2953C132.386 17.0255 132.604 17.8142 132.604 18.6613C132.604 19.501 132.389 20.2855 131.96 21.0152C131.531 21.7455 130.9 22.3347 130.067 22.7837C129.235 23.2326 128.254 23.457 127.127 23.457C125.924 23.457 124.913 23.2223 124.093 22.7521C123.272 22.2824 122.658 21.6802 122.251 20.946C121.842 20.2117 121.639 19.4505 121.639 18.6613Z" fill="url(#paint5_linear_1_35)"/>
<path d="M138.003 15.5282V18.8127C138.365 18.8463 138.815 18.8632 139.354 18.8632C141.162 18.8632 142.066 18.1198 142.066 16.6354C142.066 15.7125 141.768 15.1335 141.17 14.8988C140.573 14.6639 139.925 14.5461 139.227 14.5461C138.798 14.5461 138.487 14.6004 138.294 14.7099C138.101 14.8185 138.003 15.0916 138.003 15.5282ZM138.003 19.2402V21.6069L138.016 22.0095C138.041 22.3039 138.09 22.4921 138.161 22.576C138.233 22.6601 138.365 22.7352 138.559 22.8024C138.676 22.8445 138.815 22.8698 138.975 22.8782C139.236 22.8949 139.366 22.9577 139.366 23.0664C139.366 23.1506 139.269 23.1925 139.076 23.1925H135.329C135.144 23.1925 135.051 23.1506 135.051 23.0664C135.051 22.9577 135.178 22.8949 135.43 22.8782C135.59 22.8698 135.728 22.8445 135.846 22.8024C136.04 22.7352 136.176 22.6601 136.256 22.576C136.336 22.4921 136.38 22.3039 136.388 22.0095L136.401 21.6069V15.7041L136.388 15.2887C136.388 15.0034 136.342 14.8126 136.249 14.7164C136.157 14.6194 136.023 14.5502 135.846 14.5079C135.745 14.4751 135.648 14.4536 135.556 14.4453C135.455 14.4286 135.396 14.42 135.379 14.42C135.329 14.4117 135.282 14.4079 135.24 14.4079C135.114 14.4079 135.051 14.3536 135.051 14.2441C135.051 14.16 135.144 14.1181 135.329 14.1181H140.666C141.263 14.1181 141.802 14.204 142.281 14.376C142.76 14.5482 143.149 14.8081 143.448 15.1563C143.747 15.5047 143.896 15.935 143.896 16.4467C143.896 17.3191 143.612 17.9655 143.044 18.3852C142.477 18.8043 141.881 19.0605 141.259 19.1523C140.636 19.2448 140.06 19.2915 139.53 19.2915H138.963L138.003 19.2402Z" fill="url(#paint6_linear_1_35)"/>
<path d="M152.627 15.5656V21.7455C153.536 21.6866 154.335 21.4033 155.024 20.8954C155.714 20.3879 156.059 19.6179 156.059 18.5863C156.059 17.8904 155.816 17.2441 155.327 16.6478C154.84 16.052 153.94 15.6917 152.627 15.5656ZM151.114 21.7455V15.5656C149.818 15.6917 148.922 16.052 148.425 16.6478C147.93 17.2441 147.682 17.8904 147.682 18.5863C147.682 19.0482 147.789 19.5113 148.003 19.977C148.217 20.4426 148.582 20.8412 149.094 21.1731C149.607 21.5042 150.28 21.6952 151.114 21.7455ZM151.114 22.1355C150.011 22.0683 149.082 21.8793 148.325 21.5696C147.567 21.2591 146.992 20.8452 146.597 20.3294C146.201 19.8135 146.003 19.2372 146.003 18.5987C146.003 17.6421 146.459 16.8451 147.372 16.2074C148.285 15.5701 149.532 15.226 151.114 15.1755V15.037C151.114 14.7596 151.065 14.5714 150.968 14.4705C150.872 14.3703 150.739 14.2939 150.571 14.2441C150.402 14.2022 150.267 14.1769 150.167 14.1683C149.898 14.1683 149.763 14.1095 149.763 13.9925C149.763 13.9 149.856 13.8535 150.041 13.8535H153.7C153.893 13.8535 153.99 13.9 153.99 13.9925C153.99 14.0928 153.855 14.1517 153.586 14.1683C153.477 14.1769 153.342 14.2022 153.182 14.2441C152.812 14.345 152.627 14.609 152.627 15.037V15.1755C153.561 15.2003 154.415 15.3471 155.189 15.6154C155.963 15.8845 156.581 16.2726 157.044 16.7804C157.506 17.2881 157.738 17.8934 157.738 18.5987C157.738 19.7564 157.209 20.6148 156.154 21.1731C155.099 21.7306 153.923 22.0515 152.627 22.1355V22.274C152.627 22.5846 152.686 22.7857 152.804 22.8782C152.922 22.9706 153.106 23.0462 153.359 23.1046C153.477 23.1298 153.582 23.1465 153.674 23.1548C153.885 23.1548 153.99 23.2054 153.99 23.3065C153.99 23.4065 153.893 23.457 153.7 23.457H150.041C149.856 23.457 149.763 23.4065 149.763 23.3065C149.763 23.2223 149.877 23.1673 150.103 23.1427C150.373 23.1258 150.587 23.0793 150.747 23.0035C151.033 22.8529 151.155 22.5631 151.114 22.1355Z" fill="url(#paint7_linear_1_35)"/>
<path d="M161.371 18.6613C161.371 20.4576 161.792 21.6342 162.633 22.1919C163.474 22.7501 164.273 23.0287 165.03 23.0287C165.661 23.0287 166.254 22.889 166.809 22.6078C167.365 22.3264 167.817 21.8541 168.166 21.1918C168.514 20.5288 168.689 19.6854 168.689 18.6613C168.689 17.6213 168.514 16.7719 168.166 16.1129C167.817 15.4544 167.365 14.9848 166.809 14.7035C166.254 14.4225 165.661 14.2815 165.03 14.2815C164.257 14.2815 163.453 14.561 162.62 15.1187C161.787 15.6768 161.371 16.858 161.371 18.6613ZM159.542 18.6613C159.542 17.8735 159.745 17.1097 160.153 16.3709C160.561 15.6328 161.178 15.0287 162.002 14.5592C162.826 14.089 163.836 13.8535 165.03 13.8535C166.157 13.8535 167.135 14.0779 167.964 14.5274C168.793 14.9764 169.423 15.5656 169.857 16.2953C170.289 17.0255 170.506 17.8142 170.506 18.6613C170.506 19.501 170.292 20.2855 169.863 21.0152C169.434 21.7455 168.803 22.3347 167.97 22.7837C167.138 23.2326 166.157 23.457 165.03 23.457C163.827 23.457 162.816 23.2223 161.995 22.7521C161.176 22.2824 160.561 21.6802 160.153 20.946C159.745 20.2117 159.542 19.4505 159.542 18.6613Z" fill="url(#paint8_linear_1_35)"/>
<path d="M173.055 16.5346V14.2815C173.055 14.1815 173.148 14.131 173.332 14.131C173.391 14.131 173.442 14.1451 173.483 14.1749C173.525 14.204 173.555 14.2234 173.572 14.2313L173.837 14.3573C174.704 14.0223 175.591 13.8535 176.499 13.8535C177.256 13.8535 177.888 13.9655 178.392 14.1873C178.897 14.4097 179.27 14.6949 179.509 15.0431C179.749 15.3916 179.869 15.7546 179.869 16.1324C179.869 17.3904 178.809 18.1418 176.689 18.3852V18.4349C178.178 18.4685 179.154 18.7455 179.616 19.2655C180.079 19.7862 180.31 20.2895 180.31 20.776C180.31 21.5734 179.912 22.2197 179.118 22.7144C178.323 23.2094 177.295 23.457 176.032 23.457C175.427 23.457 174.849 23.3754 174.297 23.2119C173.747 23.0482 173.313 22.8367 172.998 22.576C172.683 22.316 172.525 22.0598 172.525 21.8084C172.525 21.6654 172.583 21.5294 172.702 21.3995C172.819 21.2694 172.983 21.2042 173.193 21.2042C173.413 21.2042 173.589 21.2648 173.723 21.3864C173.858 21.5082 173.985 21.6782 174.102 21.8963C174.304 22.2235 174.538 22.4938 174.802 22.7081C175.068 22.9221 175.456 23.0287 175.969 23.0287C176.66 23.0287 177.248 22.8464 177.736 22.4817C178.224 22.1169 178.468 21.6069 178.468 20.9525C178.468 20.0043 178.144 19.3961 177.496 19.1277C176.848 18.8594 176.134 18.7248 175.352 18.7248H174.935C174.876 18.7248 174.817 18.7248 174.758 18.7248C174.699 18.7248 174.64 18.7248 174.581 18.7248C174.422 18.7078 174.341 18.6285 174.341 18.4855C174.341 18.3682 174.381 18.303 174.462 18.2907C174.542 18.2778 174.699 18.2712 174.935 18.2712C177.012 18.2293 178.052 17.5248 178.052 16.1569C178.052 15.8132 177.971 15.4984 177.812 15.2132C177.652 14.9279 177.416 14.7015 177.105 14.5332C176.794 14.3657 176.428 14.2815 176.008 14.2815C175.377 14.2815 174.832 14.4627 174.374 14.8231C173.914 15.1841 173.593 15.6871 173.408 16.3335C173.383 16.4085 173.362 16.4699 173.345 16.5159C173.328 16.5616 173.309 16.5935 173.288 16.6101C173.268 16.6271 173.223 16.6354 173.156 16.6354C173.089 16.6354 173.055 16.6019 173.055 16.5346Z" fill="url(#paint9_linear_1_35)"/>
<path d="M188.726 19.4421L186.947 15.5029L185.117 19.4421H188.726ZM188.927 19.8451H184.941L184.184 21.468C184.049 21.7791 183.981 22.0269 183.981 22.2111C183.981 22.6389 184.289 22.8741 184.902 22.9163C185.029 22.9163 185.091 22.9623 185.091 23.054C185.091 23.1465 185.025 23.1925 184.891 23.1925H181.988C181.921 23.1925 181.887 23.1506 181.887 23.0664C181.887 22.9835 181.946 22.9284 182.063 22.9034C182.316 22.8367 182.526 22.7397 182.695 22.6136C183.039 22.3536 183.351 21.9299 183.628 21.3425L186.555 14.9486L186.429 14.6717C186.421 14.6639 186.416 14.6426 186.416 14.609C186.416 14.6004 186.454 14.5837 186.53 14.5592C186.598 14.5332 186.661 14.4958 186.72 14.4453L186.846 14.3703C187.048 14.2358 187.207 14.1057 187.325 13.9796C187.409 13.8962 187.48 13.8535 187.539 13.8535C187.616 13.8535 187.674 13.9 187.716 13.9925L191.439 21.7073C191.683 22.1944 191.875 22.5133 192.019 22.6639C192.178 22.8069 192.384 22.8949 192.638 22.9284C192.763 22.937 192.827 22.9789 192.827 23.054C192.827 23.1465 192.789 23.1925 192.713 23.1925H188.94C188.865 23.1925 188.826 23.1465 188.826 23.054C188.826 22.9537 188.902 22.9034 189.054 22.9034C189.685 22.8698 190 22.6639 190 22.2861C190 22.1522 189.937 21.9597 189.811 21.7073L188.927 19.8451Z" fill="url(#paint10_linear_1_35)"/>
<path d="M62.5778 30.5391V32.443C62.5778 32.5148 62.5324 32.5509 62.4422 32.5509C62.4063 32.5509 62.3817 32.5476 62.3701 32.5418C62.3578 32.536 62.3428 32.5161 62.3253 32.4837C62.3072 32.4506 62.2891 32.4119 62.271 32.3664C62.2533 32.322 62.2328 32.2606 62.2082 32.1827C62.1962 32.1525 62.1809 32.118 62.1631 32.0794C62.145 32.0405 62.1245 31.9973 62.0996 31.9488C62.0756 31.9016 62.0582 31.8684 62.0459 31.8505C61.8779 31.5392 61.6036 31.2274 61.2223 30.9164C60.8418 30.6054 60.2963 30.4495 59.5882 30.4495C58.9644 30.4495 58.4411 30.5904 58.0182 30.8717C57.5943 31.1531 57.2845 31.5283 57.086 31.9986C56.8882 32.4688 56.7888 32.9941 56.7888 33.5742C56.7888 34.5503 57.0471 35.3136 57.5632 35.8639C58.0793 36.4152 58.7731 36.6898 59.6421 36.6898C60.1945 36.6898 60.6601 36.5821 61.0382 36.3664C61.4164 36.1511 61.7054 35.9048 61.9066 35.6259C62.1074 35.348 62.2437 35.0859 62.3158 34.8406C62.3455 34.7269 62.3728 34.6551 62.3967 34.6246C62.4213 34.595 62.4603 34.5801 62.5142 34.5801C62.6041 34.5801 62.6488 34.6157 62.6488 34.688V36.591C62.6488 36.6629 62.6126 36.699 62.5412 36.699C62.4695 36.699 62.4032 36.6544 62.3428 36.5647L62.1361 36.2772H62.0914C61.9831 36.3368 61.9052 36.3821 61.857 36.4121C61.1544 36.8012 60.3776 36.9954 59.526 36.9954C59.0819 36.9954 58.6221 36.9314 58.1487 36.8026C57.6739 36.6738 57.2349 36.4687 56.8298 36.1875C56.425 35.9061 56.1008 35.5463 55.8576 35.1097C55.6144 34.6731 55.4925 34.1609 55.4925 33.5742C55.4925 32.9941 55.6144 32.4791 55.8576 32.0302C56.1008 31.5814 56.4233 31.2191 56.8254 30.9434C57.2271 30.668 57.6636 30.4661 58.1343 30.3375C58.6064 30.2087 59.0669 30.144 59.5168 30.144C59.9612 30.144 60.4094 30.2074 60.8623 30.333C61.3156 30.459 61.7009 30.6356 62.0186 30.8625H62.0647L62.271 30.5664C62.3253 30.4823 62.3882 30.4409 62.4603 30.4409C62.5382 30.4409 62.5778 30.4739 62.5778 30.5391Z" fill="url(#paint11_linear_1_35)"/>
<path d="M68.5543 30.6382V35.963C68.5543 36.1603 68.5867 36.2922 68.653 36.3576C68.7193 36.4237 68.8149 36.4806 68.941 36.5283C69.037 36.5589 69.1329 36.5767 69.2296 36.5821C69.4212 36.5947 69.5172 36.6397 69.5172 36.7164C69.5172 36.7767 69.4455 36.807 69.3013 36.807H66.6369C66.4989 36.807 66.4296 36.7767 66.4296 36.7164C66.4296 36.6397 66.5256 36.5947 66.7179 36.5821C66.8074 36.5767 66.9034 36.5589 67.0058 36.5283C67.1315 36.4871 67.2282 36.4312 67.2938 36.3623C67.3601 36.2935 67.3929 36.1603 67.3929 35.963V30.6382H67.0424C66.3633 30.6382 65.855 30.7281 65.5158 30.908C65.1773 31.0872 64.9095 31.2992 64.7148 31.545C64.5197 31.7909 64.3711 31.9132 64.2693 31.9132C64.1494 31.9132 64.0893 31.8801 64.0893 31.8141C64.0893 31.8091 64.0903 31.8037 64.0938 31.8005C64.0968 31.798 64.0982 31.7934 64.0982 31.7876L64.5126 30.4495C64.5423 30.3716 64.5689 30.3239 64.5932 30.3057C64.6171 30.2882 64.6567 30.2792 64.7103 30.2792C64.7759 30.2792 64.8278 30.2804 64.8627 30.2832C64.8992 30.2862 64.9426 30.2908 64.9939 30.2966C65.0444 30.3032 65.1045 30.309 65.1739 30.3148C65.2429 30.3214 65.3102 30.3272 65.3764 30.333H70.5796C70.6517 30.3272 70.7234 30.3214 70.7955 30.3148C70.8676 30.309 70.929 30.3032 70.9803 30.2966C71.0308 30.2908 71.0711 30.2862 71.1015 30.2832C71.1313 30.2804 71.1787 30.2792 71.2454 30.2792C71.3355 30.2792 71.3953 30.3363 71.425 30.4495L71.8571 31.7876C71.8636 31.7992 71.8667 31.8091 71.8667 31.8141C71.8667 31.8801 71.8032 31.9132 71.6775 31.9132C71.6597 31.9132 71.6027 31.8505 71.5063 31.7242C71.2843 31.4073 70.9861 31.1473 70.6107 30.9434C70.2353 30.7406 69.6549 30.6382 68.8689 30.6382H68.5543Z" fill="url(#paint12_linear_1_35)"/>
<path d="M75.3141 31.3389V33.6821C75.572 33.7061 75.8931 33.7177 76.277 33.7177C77.5672 33.7177 78.2125 33.1881 78.2125 32.1285C78.2125 31.47 77.9993 31.0566 77.5737 30.8898C77.1477 30.7223 76.6852 30.6382 76.1875 30.6382C75.8808 30.6382 75.6587 30.6771 75.5207 30.7546C75.3834 30.833 75.3141 31.0275 75.3141 31.3389ZM75.3141 33.9876V35.6756L75.3229 35.963C75.3404 36.1725 75.3755 36.3071 75.4261 36.3664C75.4773 36.4267 75.572 36.4806 75.71 36.5283C75.7943 36.5589 75.8931 36.5767 76.0071 36.5821C76.1933 36.5947 76.2859 36.6397 76.2859 36.7164C76.2859 36.7767 76.2172 36.807 76.0792 36.807H73.4056C73.2737 36.807 73.2078 36.7767 73.2078 36.7164C73.2078 36.6397 73.298 36.5947 73.4777 36.5821C73.5911 36.5767 73.6901 36.5589 73.7745 36.5283C73.9125 36.4806 74.0105 36.4267 74.0676 36.3664C74.1239 36.3071 74.1557 36.1725 74.1615 35.963L74.1707 35.6756V31.4642L74.1615 31.1681C74.1615 30.9649 74.1284 30.8284 74.0631 30.7597C73.9962 30.6905 73.9009 30.6408 73.7745 30.6116C73.7024 30.5871 73.6338 30.5722 73.5675 30.5664C73.4958 30.5541 73.4534 30.5482 73.4418 30.5482C73.4056 30.5424 73.3724 30.5391 73.3427 30.5391C73.2525 30.5391 73.2078 30.5005 73.2078 30.4229C73.2078 30.3628 73.2737 30.333 73.4056 30.333H77.2133C77.6393 30.333 78.0239 30.3944 78.3655 30.5171C78.7078 30.6395 78.9855 30.8252 79.1983 31.0735C79.4115 31.3219 79.5177 31.6292 79.5177 31.994C79.5177 32.6168 79.3148 33.0774 78.9103 33.3769C78.5049 33.6763 78.0803 33.8587 77.6359 33.9247C77.1918 33.9901 76.7809 34.0233 76.4034 34.0233H75.9979L75.3141 33.9876Z" fill="url(#paint13_linear_1_35)"/>
<path d="M85.0901 34.3737L86.368 31.824C86.4104 31.7638 86.4517 31.6681 86.4944 31.5359C86.5361 31.4048 86.5569 31.2754 86.5569 31.1506C86.5569 30.8625 86.3803 30.6887 86.0264 30.6291C85.8519 30.6054 85.7651 30.5457 85.7651 30.4495C85.7651 30.3716 85.8194 30.333 85.9277 30.333H88.1416C88.2376 30.333 88.2857 30.3807 88.2857 30.4772C88.2857 30.5606 88.1962 30.6116 88.0152 30.6291C87.7942 30.6531 87.6053 30.7352 87.4529 30.8762C87.2999 31.0167 87.1844 31.1577 87.1069 31.2986C87.0283 31.4384 86.9412 31.6138 86.8452 31.824L84.811 35.6486C84.3424 36.5463 83.6862 36.9954 82.84 36.9954C82.4318 36.9954 82.1388 36.9235 81.9618 36.7797C81.7856 36.6363 81.6961 36.4748 81.6961 36.2956C81.6961 36.1511 81.7538 36.0314 81.8672 35.9359C81.982 35.8402 82.1285 35.7921 82.3089 35.7921C82.5487 35.7921 82.7587 35.9061 82.9384 36.1337C82.9623 36.1637 82.9999 36.2049 83.0505 36.2594C83.1017 36.3129 83.1526 36.3565 83.2042 36.3893C83.2547 36.4223 83.3138 36.4383 83.3801 36.4383C83.5533 36.4383 83.7439 36.3439 83.9513 36.1558C84.1589 35.9667 84.3338 35.6934 84.478 35.3343L81.9854 31.1324C81.9061 30.9707 81.7685 30.8355 81.571 30.7281C81.4809 30.6862 81.3483 30.6531 81.1748 30.6291C81.0002 30.6054 80.9128 30.5689 80.9128 30.5212C80.9128 30.4436 80.9159 30.3931 80.9223 30.3691C80.9282 30.3446 80.9736 30.333 81.0573 30.333H83.5325C83.6705 30.333 83.7398 30.3691 83.7398 30.4409C83.7398 30.5179 83.6862 30.5722 83.5786 30.602C83.3015 30.6804 83.1635 30.7903 83.1635 30.9346C83.1635 30.9823 83.2114 31.0872 83.308 31.2489L85.0901 34.3737Z" fill="url(#paint14_linear_1_35)"/>
<path d="M91.5623 33.269H95.4236V31.4642L95.4141 31.1681V31.0063C95.4141 30.833 95.289 30.7008 95.0359 30.6116C94.9529 30.5871 94.8805 30.5722 94.8207 30.5664C94.7603 30.5606 94.7217 30.5541 94.7039 30.5482C94.6612 30.5424 94.6257 30.5391 94.5956 30.5391C94.5054 30.5391 94.4607 30.5005 94.4607 30.4229C94.4607 30.3628 94.5263 30.333 94.6578 30.333H97.3321C97.4756 30.333 97.548 30.3628 97.548 30.4229C97.548 30.4947 97.4937 30.5333 97.3861 30.5391C97.3622 30.5391 97.3321 30.5424 97.2966 30.5482C97.2778 30.5541 97.2389 30.5606 97.1791 30.5664C97.0049 30.5846 96.8628 30.6303 96.7517 30.7054C96.6404 30.7805 96.585 30.9346 96.585 31.1681V35.963C96.585 36.2196 96.6469 36.3845 96.7692 36.4564C96.8925 36.5283 97.0564 36.5702 97.26 36.5821C97.452 36.5947 97.548 36.6397 97.548 36.7164C97.548 36.7767 97.4756 36.807 97.3321 36.807H94.6578C94.5263 36.807 94.4607 36.7767 94.4607 36.7164C94.4607 36.6397 94.5536 36.5947 94.7391 36.5821C94.8474 36.5767 94.9471 36.5589 95.0359 36.5283C95.289 36.4383 95.4141 36.3071 95.4141 36.1337V35.963L95.4236 35.6756V33.5833H91.5623V35.6756L91.5711 35.963C91.5889 36.1725 91.6237 36.3071 91.6743 36.3664C91.7255 36.4267 91.8198 36.4806 91.9578 36.5283C92.0422 36.5589 92.1413 36.5767 92.2547 36.5821C92.4415 36.5947 92.5341 36.6397 92.5341 36.7164C92.5341 36.7767 92.4654 36.807 92.3274 36.807H89.6538C89.5223 36.807 89.456 36.7767 89.456 36.7164C89.456 36.6397 89.5462 36.5947 89.7259 36.5821C89.8399 36.5767 89.9383 36.5589 90.0227 36.5283C90.161 36.4806 90.2581 36.4267 90.3151 36.3664C90.3722 36.3071 90.4039 36.1725 90.4101 35.963L90.4183 35.6756V31.4642L90.4101 31.1681C90.4101 30.9649 90.3769 30.8284 90.3107 30.7597C90.2444 30.6905 90.1487 30.6408 90.0227 30.6116C89.951 30.5871 89.8813 30.5722 89.816 30.5664C89.7433 30.5541 89.7019 30.5482 89.6896 30.5482C89.6538 30.5424 89.6206 30.5391 89.5909 30.5391C89.5001 30.5391 89.456 30.5005 89.456 30.4229C89.456 30.3628 89.5223 30.333 89.6538 30.333H92.3274C92.4654 30.333 92.5341 30.3628 92.5341 30.4229C92.5341 30.5005 92.4863 30.5391 92.3896 30.5391C92.3606 30.5391 92.3274 30.5424 92.2912 30.5482C92.2734 30.5541 92.2308 30.5606 92.1652 30.5664C92.0992 30.5722 92.0306 30.5871 91.9578 30.6116C91.8321 30.6473 91.7399 30.6983 91.6842 30.7638C91.6272 30.8297 91.5889 30.9649 91.5711 31.1681L91.5623 31.4642V33.269Z" fill="url(#paint15_linear_1_35)"/>
<path d="M101.607 33.269H105.469V31.4642L105.46 31.1681V31.0063C105.46 30.833 105.334 30.7008 105.083 30.6116C104.998 30.5871 104.926 30.5722 104.867 30.5664C104.806 30.5606 104.767 30.5541 104.749 30.5482C104.707 30.5424 104.671 30.5391 104.641 30.5391C104.551 30.5391 104.506 30.5005 104.506 30.4229C104.506 30.3628 104.572 30.333 104.704 30.333H107.378C107.521 30.333 107.593 30.3628 107.593 30.4229C107.593 30.4947 107.54 30.5333 107.432 30.5391C107.408 30.5391 107.378 30.5424 107.342 30.5482C107.324 30.5541 107.285 30.5606 107.224 30.5664C107.05 30.5846 106.908 30.6303 106.797 30.7054C106.686 30.7805 106.63 30.9346 106.63 31.1681V35.963C106.63 36.2196 106.692 36.3845 106.815 36.4564C106.938 36.5283 107.102 36.5702 107.305 36.5821C107.497 36.5947 107.593 36.6397 107.593 36.7164C107.593 36.7767 107.521 36.807 107.378 36.807H104.704C104.572 36.807 104.506 36.7767 104.506 36.7164C104.506 36.6397 104.599 36.5947 104.785 36.5821C104.893 36.5767 104.992 36.5589 105.083 36.5283C105.334 36.4383 105.46 36.3071 105.46 36.1337V35.963L105.469 35.6756V33.5833H101.607V35.6756L101.616 35.963C101.634 36.1725 101.669 36.3071 101.72 36.3664C101.771 36.4267 101.865 36.4806 102.004 36.5283C102.087 36.5589 102.186 36.5767 102.301 36.5821C102.487 36.5947 102.579 36.6397 102.579 36.7164C102.579 36.7767 102.511 36.807 102.373 36.807H99.699C99.5675 36.807 99.5012 36.7767 99.5012 36.7164C99.5012 36.6397 99.5914 36.5947 99.7711 36.5821C99.8852 36.5767 99.9842 36.5589 100.068 36.5283C100.206 36.4806 100.304 36.4267 100.36 36.3664C100.417 36.3071 100.449 36.1725 100.456 35.963L100.465 35.6756V31.4642L100.456 31.1681C100.456 30.9649 100.422 30.8284 100.357 30.7597C100.29 30.6905 100.194 30.6408 100.068 30.6116C99.9962 30.5871 99.9265 30.5722 99.8613 30.5664C99.7892 30.5541 99.7472 30.5482 99.7352 30.5482C99.699 30.5424 99.6659 30.5391 99.6361 30.5391C99.5466 30.5391 99.5012 30.5005 99.5012 30.4229C99.5012 30.3628 99.5675 30.333 99.699 30.333H102.373C102.511 30.333 102.579 30.3628 102.579 30.4229C102.579 30.5005 102.531 30.5391 102.436 30.5391C102.406 30.5391 102.373 30.5424 102.336 30.5482C102.319 30.5541 102.276 30.5606 102.21 30.5664C102.144 30.5722 102.075 30.5871 102.004 30.6116C101.877 30.6473 101.786 30.6983 101.729 30.7638C101.672 30.8297 101.634 30.9649 101.616 31.1681L101.607 31.4642V33.269Z" fill="url(#paint16_linear_1_35)"/>
<path d="M117.198 35.963V31.1681C117.198 30.9649 117.163 30.8284 117.09 30.7597C117.018 30.6905 116.925 30.6408 116.811 30.6116C116.745 30.5871 116.673 30.5722 116.595 30.5664C116.541 30.5606 116.505 30.5541 116.488 30.5482C116.451 30.5424 116.418 30.5391 116.388 30.5391C116.286 30.5333 116.234 30.4947 116.234 30.4229C116.234 30.3628 116.303 30.333 116.442 30.333H119.124C119.257 30.333 119.323 30.3628 119.323 30.4229C119.323 30.4947 119.274 30.5333 119.178 30.5391C119.148 30.5391 119.112 30.5424 119.07 30.5482C119.053 30.5541 119.016 30.5606 118.963 30.5664C118.891 30.5722 118.818 30.5871 118.746 30.6116C118.639 30.6408 118.546 30.6905 118.472 30.7597C118.396 30.8284 118.359 30.9649 118.359 31.1681V35.963C118.359 36.1603 118.392 36.2921 118.458 36.3576C118.524 36.4237 118.621 36.4806 118.746 36.5283C118.842 36.5589 118.938 36.5767 119.034 36.5821C119.226 36.5947 119.323 36.6397 119.323 36.7164C119.323 36.7767 119.257 36.807 119.124 36.807H116.442C116.303 36.807 116.234 36.7767 116.234 36.7164C116.234 36.6397 116.33 36.5947 116.522 36.5821C116.63 36.5767 116.727 36.5589 116.811 36.5283C116.937 36.4871 117.033 36.4339 117.099 36.3709C117.165 36.3085 117.198 36.1725 117.198 35.963ZM111.653 33.4307V35.9448C111.653 36.1603 111.737 36.3007 111.905 36.3664C112.074 36.4332 112.28 36.4656 112.526 36.4656C113.265 36.4656 113.786 36.3221 114.092 36.0347C114.398 35.7469 114.551 35.373 114.551 34.9127C114.551 33.7152 113.585 33.221 111.653 33.4307ZM111.653 31.4642V33.1434C111.941 33.1252 112.463 33.1169 113.219 33.1169C113.915 33.1169 114.457 33.2139 114.844 33.408C115.232 33.6028 115.497 33.8363 115.641 34.1086C115.785 34.3808 115.857 34.6403 115.857 34.8853C115.857 35.4119 115.638 35.8639 115.2 36.241C114.761 36.6182 114.059 36.807 113.094 36.807H109.744C109.613 36.807 109.546 36.7767 109.546 36.7164C109.546 36.6397 109.637 36.5947 109.816 36.5821C109.93 36.5767 110.03 36.5589 110.113 36.5283C110.251 36.4806 110.349 36.4267 110.407 36.3664C110.463 36.3071 110.494 36.1725 110.501 35.963L110.51 35.6756V31.4642L110.501 31.1681C110.501 30.9649 110.467 30.8284 110.402 30.7597C110.336 30.6905 110.24 30.6408 110.113 30.6116C110.042 30.5871 109.973 30.5722 109.906 30.5664C109.835 30.5541 109.792 30.5482 109.78 30.5482C109.744 30.5424 109.711 30.5391 109.681 30.5391C109.592 30.5391 109.546 30.5005 109.546 30.4229C109.546 30.3628 109.613 30.333 109.744 30.333H112.418C112.556 30.333 112.625 30.3628 112.625 30.4229C112.625 30.5005 112.577 30.5391 112.481 30.5391C112.451 30.5391 112.418 30.5424 112.382 30.5482C112.364 30.5541 112.322 30.5606 112.256 30.5664C112.19 30.5722 112.121 30.5871 112.049 30.6116C111.923 30.6473 111.832 30.6983 111.775 30.7638C111.718 30.8297 111.679 30.9649 111.662 31.1681L111.653 31.4642Z" fill="url(#paint17_linear_1_35)"/>
<path d="M125.326 29.794C125.002 29.794 124.678 29.743 124.354 29.6414C124.132 29.5638 123.91 29.4307 123.688 29.2424C123.466 29.0535 123.355 28.8665 123.355 28.681C123.355 28.5309 123.406 28.4215 123.508 28.353C123.61 28.2838 123.724 28.2502 123.85 28.2502C124.012 28.2502 124.131 28.2972 124.206 28.393C124.281 28.4895 124.318 28.5819 124.318 28.6719C124.318 28.7139 124.317 28.7482 124.314 28.7753C124.31 28.8018 124.306 28.8336 124.3 28.8698C124.3 29.1808 124.42 29.3826 124.661 29.4752C124.901 29.5683 125.122 29.6149 125.326 29.6149C125.566 29.6149 125.795 29.5613 126.015 29.4531C126.234 29.3453 126.343 29.1512 126.343 28.8698C126.343 28.8271 126.342 28.7914 126.339 28.7619C126.336 28.7321 126.334 28.7015 126.334 28.6719C126.334 28.5223 126.384 28.4145 126.483 28.3485C126.582 28.2826 126.686 28.2502 126.793 28.2502C126.974 28.2502 127.103 28.2947 127.18 28.3846C127.258 28.4745 127.297 28.5729 127.297 28.681C127.297 28.8303 127.203 29.0029 127.014 29.1969C126.825 29.3918 126.586 29.5398 126.298 29.6414C125.974 29.743 125.65 29.794 125.326 29.794ZM123.391 35.4513L127.243 31.1772V31.0063C127.243 30.8931 127.199 30.8011 127.108 30.7327C127.019 30.6634 126.938 30.6233 126.866 30.6116C126.782 30.5871 126.709 30.5722 126.649 30.5664C126.59 30.5541 126.551 30.5482 126.533 30.5482C126.496 30.5424 126.463 30.5391 126.433 30.5391C126.337 30.5391 126.29 30.5005 126.29 30.4229C126.29 30.3628 126.356 30.333 126.487 30.333H129.161C129.305 30.333 129.377 30.3628 129.377 30.4229C129.377 30.4947 129.326 30.5333 129.224 30.5391C129.194 30.5391 129.161 30.5424 129.125 30.5482C129.107 30.5541 129.072 30.5606 129.017 30.5664C128.939 30.5722 128.867 30.5871 128.802 30.6116C128.675 30.6473 128.579 30.6983 128.512 30.7638C128.447 30.8297 128.414 30.9649 128.414 31.1681V35.963C128.414 36.1603 128.447 36.2956 128.512 36.3664C128.579 36.4383 128.675 36.4928 128.802 36.5283C128.885 36.5589 128.981 36.5767 129.089 36.5821C129.281 36.5947 129.377 36.6397 129.377 36.7164C129.377 36.7767 129.305 36.807 129.161 36.807H126.487C126.356 36.807 126.29 36.7767 126.29 36.7164C126.29 36.6397 126.386 36.5947 126.578 36.5821C126.655 36.5767 126.752 36.5589 126.866 36.5283C127.118 36.4383 127.243 36.3071 127.243 36.1337V35.963L127.253 35.6756V31.6888L123.401 35.9533C123.394 36.1511 123.423 36.2829 123.486 36.3491C123.549 36.4152 123.649 36.4748 123.786 36.5283C123.871 36.5589 123.97 36.5767 124.084 36.5821C124.27 36.5947 124.363 36.6397 124.363 36.7164C124.363 36.7767 124.294 36.807 124.157 36.807H121.483C121.351 36.807 121.285 36.7767 121.285 36.7164C121.285 36.6397 121.375 36.5947 121.554 36.5821C121.669 36.5767 121.768 36.5589 121.852 36.5283C121.99 36.4806 122.087 36.4267 122.145 36.3664C122.201 36.3071 122.233 36.1725 122.239 35.963L122.248 35.6756V31.4642L122.239 31.1681C122.239 30.9649 122.206 30.8284 122.14 30.7597C122.074 30.6905 121.978 30.6407 121.852 30.6116C121.78 30.5871 121.711 30.5722 121.645 30.5664C121.573 30.5541 121.531 30.5482 121.518 30.5482C121.483 30.5424 121.45 30.5391 121.42 30.5391C121.33 30.5391 121.285 30.5005 121.285 30.4229C121.285 30.3628 121.351 30.333 121.483 30.333H124.157C124.294 30.333 124.363 30.3628 124.363 30.4229C124.363 30.5005 124.315 30.5391 124.219 30.5391C124.189 30.5391 124.157 30.5424 124.121 30.5482C124.102 30.5541 124.06 30.5606 123.994 30.5664C123.928 30.5722 123.859 30.5871 123.786 30.6116C123.661 30.6473 123.569 30.6983 123.513 30.7638C123.456 30.8297 123.418 30.9649 123.401 31.1681L123.391 31.4642V35.4513Z" fill="url(#paint18_linear_1_35)"/>
<path d="M136.038 33.5742C136.038 34.8555 136.339 35.6946 136.939 36.0932C137.538 36.4908 138.108 36.6898 138.648 36.6898C139.099 36.6898 139.523 36.59 139.918 36.3893C140.314 36.1886 140.637 35.8518 140.886 35.3795C141.135 34.9061 141.26 34.3044 141.26 33.5742C141.26 32.8324 141.135 32.2262 140.886 31.756C140.637 31.2858 140.314 30.9512 139.918 30.7501C139.523 30.5495 139.099 30.4495 138.648 30.4495C138.097 30.4495 137.524 30.6486 136.93 31.0462C136.336 31.4447 136.038 32.2877 136.038 33.5742ZM134.733 33.5742C134.733 33.0115 134.879 32.4668 135.169 31.9402C135.461 31.4139 135.9 30.9824 136.489 30.6473C137.076 30.3122 137.797 30.144 138.648 30.144C139.453 30.144 140.151 30.3044 140.742 30.6253C141.332 30.9449 141.783 31.3654 142.092 31.8859C142.401 32.4074 142.555 32.9701 142.555 33.5742C142.555 34.1733 142.402 34.7327 142.097 35.2535C141.791 35.7742 141.341 36.1947 140.747 36.5147C140.152 36.8353 139.453 36.9954 138.648 36.9954C137.79 36.9954 137.07 36.8278 136.484 36.4928C135.899 36.1579 135.461 35.7283 135.169 35.2042C134.879 34.6804 134.733 34.1369 134.733 33.5742Z" fill="url(#paint19_linear_1_35)"/>
<path d="M146.408 31.3389V33.6821C146.666 33.7061 146.987 33.7177 147.371 33.7177C148.662 33.7177 149.306 33.1881 149.306 32.1285C149.306 31.47 149.094 31.0566 148.668 30.8898C148.241 30.7223 147.779 30.6382 147.281 30.6382C146.974 30.6382 146.753 30.6771 146.615 30.7546C146.477 30.833 146.408 31.0275 146.408 31.3389ZM146.408 33.9876V35.6756L146.418 35.963C146.434 36.1725 146.47 36.3071 146.521 36.3664C146.571 36.4267 146.666 36.4806 146.803 36.5283C146.888 36.5589 146.987 36.5767 147.101 36.5821C147.287 36.5947 147.38 36.6397 147.38 36.7164C147.38 36.7767 147.311 36.807 147.173 36.807H144.5C144.368 36.807 144.302 36.7767 144.302 36.7164C144.302 36.6397 144.392 36.5947 144.571 36.5821C144.685 36.5767 144.785 36.5589 144.869 36.5283C145.007 36.4806 145.104 36.4267 145.162 36.3664C145.218 36.3071 145.25 36.1725 145.256 35.963L145.265 35.6756V31.4642L145.256 31.1681C145.256 30.9649 145.222 30.8284 145.156 30.7597C145.091 30.6905 144.995 30.6408 144.869 30.6116C144.797 30.5871 144.728 30.5722 144.662 30.5664C144.589 30.5541 144.547 30.5482 144.535 30.5482C144.5 30.5424 144.466 30.5391 144.437 30.5391C144.347 30.5391 144.302 30.5005 144.302 30.4229C144.302 30.3628 144.368 30.333 144.5 30.333H148.307C148.733 30.333 149.118 30.3944 149.46 30.5171C149.802 30.6395 150.079 30.8252 150.292 31.0735C150.505 31.3219 150.612 31.6292 150.612 31.994C150.612 32.6168 150.409 33.0774 150.004 33.3769C149.599 33.6763 149.175 33.8587 148.731 33.9247C148.287 33.9901 147.875 34.0233 147.497 34.0233H147.093L146.408 33.9876Z" fill="url(#paint20_linear_1_35)"/>
<path d="M154.69 33.2778H155.221C155.779 33.2778 156.157 33.1596 156.355 32.9228C156.553 32.6868 156.706 32.3058 156.814 31.7785C156.916 31.3356 157.077 30.9525 157.3 30.6291C157.523 30.3057 157.908 30.144 158.461 30.144C158.725 30.144 158.914 30.1937 159.028 30.2928C159.142 30.3911 159.199 30.5096 159.199 30.6473C159.199 30.785 159.149 30.897 159.046 30.9843C158.945 31.071 158.824 31.1142 158.686 31.1142C158.566 31.1142 158.41 31.069 158.218 30.979C158.05 30.9015 157.927 30.8625 157.849 30.8625C157.651 30.8625 157.505 30.9687 157.413 31.1809C157.319 31.3937 157.246 31.6499 157.192 31.9488C157.12 32.3083 157.015 32.6136 156.877 32.8647C156.739 33.1169 156.508 33.2839 156.183 33.3678V33.4133C156.742 33.4966 157.172 33.6493 157.476 33.8703C157.778 34.0917 157.98 34.3239 158.078 34.5665C158.178 34.809 158.26 35.1009 158.326 35.4417C158.416 35.8672 158.494 36.1579 158.56 36.3129C158.626 36.4687 158.754 36.5463 158.947 36.5463C159.116 36.5463 159.292 36.4237 159.478 36.1777C159.586 36.0289 159.662 35.9534 159.703 35.9534C159.812 35.9534 159.865 36.0168 159.865 36.1422C159.865 36.3341 159.751 36.5239 159.524 36.7126C159.295 36.9011 159.016 36.9954 158.686 36.9954C158.218 36.9954 157.873 36.8813 157.651 36.6544C157.428 36.4267 157.236 35.9812 157.075 35.3161C156.979 34.9094 156.877 34.5872 156.769 34.3512C156.661 34.115 156.485 33.9287 156.242 33.7941C155.999 33.6596 155.64 33.5924 155.167 33.5924H154.69V35.963C154.69 36.2196 154.752 36.3845 154.879 36.4564C155.004 36.5283 155.17 36.5702 155.374 36.5821C155.559 36.5947 155.653 36.6397 155.653 36.7164C155.653 36.7767 155.584 36.807 155.446 36.807H152.772C152.639 36.807 152.574 36.7767 152.574 36.7164C152.574 36.6397 152.665 36.5947 152.844 36.5821C152.958 36.5767 153.057 36.5589 153.141 36.5283C153.28 36.4806 153.377 36.4267 153.434 36.3664C153.49 36.3071 153.522 36.1726 153.529 35.963L153.537 35.6756V31.4642L153.529 31.1681C153.529 30.9649 153.495 30.8284 153.429 30.7597C153.363 30.6905 153.267 30.6408 153.141 30.6116C153.07 30.5871 153 30.5722 152.935 30.5664C152.862 30.5541 152.82 30.5482 152.808 30.5482C152.772 30.5424 152.74 30.5391 152.709 30.5391C152.619 30.5391 152.574 30.5005 152.574 30.4229C152.574 30.3628 152.639 30.333 152.772 30.333H155.446C155.584 30.333 155.653 30.3628 155.653 30.4229C155.653 30.5005 155.604 30.5391 155.508 30.5391C155.478 30.5391 155.446 30.5424 155.41 30.5482C155.392 30.5541 155.349 30.5606 155.284 30.5664C155.115 30.5846 154.975 30.6291 154.86 30.7008C154.746 30.7729 154.69 30.9288 154.69 31.1681V33.2778Z" fill="url(#paint21_linear_1_35)"/>
<path d="M163.322 30.6382V33.2334H163.853C164.159 33.2334 164.404 33.221 164.586 33.197C164.77 33.1732 164.942 33.1045 165.104 32.9908C165.368 32.8051 165.5 32.56 165.5 32.2548V32.2275C165.5 32.1317 165.552 32.084 165.653 32.084C165.744 32.084 165.789 32.1138 165.789 32.1739V34.6157C165.789 34.6701 165.744 34.6996 165.653 34.7062C165.605 34.7112 165.572 34.7029 165.555 34.6789C165.555 34.673 165.553 34.6685 165.55 34.6655C165.547 34.6622 165.542 34.661 165.536 34.661C165.512 34.6428 165.5 34.6188 165.5 34.5884V34.5354C165.495 34.3317 165.434 34.1551 165.321 34.005C165.176 33.8077 164.987 33.6809 164.753 33.624C164.519 33.5664 164.219 33.5381 163.853 33.5381H163.322V35.586C163.322 35.7954 163.333 35.9585 163.354 36.0748C163.374 36.1913 163.439 36.2921 163.547 36.3756C163.643 36.4356 163.763 36.4721 163.907 36.4836C164.051 36.4952 164.315 36.502 164.699 36.502C165.216 36.502 165.668 36.4506 166.059 36.3491C166.448 36.2475 166.803 36.0018 167.122 35.6125C167.193 35.511 167.25 35.4268 167.292 35.3613C167.333 35.2954 167.374 35.2431 167.413 35.2042C167.452 35.1656 167.496 35.1453 167.543 35.1453C167.574 35.1453 167.603 35.1544 167.63 35.1726C167.657 35.1905 167.67 35.2146 167.67 35.2443C167.67 35.2568 167.668 35.2651 167.665 35.2714C167.662 35.2772 167.661 35.283 167.661 35.2891L167.346 36.6271C167.322 36.747 167.256 36.807 167.148 36.807H161.414C161.282 36.807 161.216 36.7767 161.216 36.7164C161.216 36.6397 161.306 36.5947 161.486 36.5821C161.599 36.5767 161.698 36.5589 161.783 36.5283C161.921 36.4806 162.018 36.4267 162.075 36.3664C162.132 36.3071 162.164 36.1725 162.17 35.963L162.178 35.6756V31.4642L162.17 31.1681C162.17 30.9649 162.137 30.8284 162.07 30.7597C162.005 30.6905 161.909 30.6408 161.783 30.6116C161.711 30.5871 161.641 30.5722 161.576 30.5664C161.503 30.5541 161.462 30.5482 161.449 30.5482C161.414 30.5424 161.381 30.5391 161.351 30.5391C161.26 30.5391 161.216 30.5005 161.216 30.4229C161.216 30.3628 161.282 30.333 161.414 30.333H166.724C166.803 30.333 166.851 30.3497 166.869 30.3827C166.887 30.415 166.902 30.4616 166.914 30.5212L167.337 31.8505C167.343 31.8626 167.346 31.8712 167.346 31.877C167.346 31.9189 167.322 31.9488 167.274 31.9667C167.237 31.9849 167.202 31.9849 167.166 31.9667C167.136 31.9551 167.072 31.8834 166.977 31.7514C166.773 31.4521 166.484 31.1918 166.113 30.9707C165.74 30.7488 165.155 30.6382 164.357 30.6382H163.322Z" fill="url(#paint22_linear_1_35)"/>
<path d="M176.06 30.5391V32.443C176.06 32.5148 176.014 32.5509 175.925 32.5509C175.889 32.5509 175.865 32.5476 175.852 32.5418C175.841 32.536 175.825 32.5161 175.808 32.4837C175.79 32.4506 175.771 32.4119 175.754 32.3664C175.736 32.322 175.714 32.2606 175.69 32.1827C175.679 32.1525 175.664 32.118 175.645 32.0794C175.628 32.0405 175.606 31.9973 175.583 31.9488C175.559 31.9016 175.541 31.8684 175.529 31.8505C175.361 31.5392 175.087 31.2274 174.705 30.9164C174.324 30.6054 173.779 30.4495 173.071 30.4495C172.447 30.4495 171.923 30.5904 171.5 30.8717C171.077 31.1531 170.767 31.5283 170.569 31.9986C170.371 32.4688 170.272 32.9941 170.272 33.5742C170.272 34.5503 170.529 35.3136 171.046 35.8639C171.562 36.4152 172.255 36.6898 173.125 36.6898C173.677 36.6898 174.142 36.5821 174.521 36.3664C174.898 36.1511 175.188 35.9048 175.389 35.6259C175.59 35.348 175.726 35.0859 175.798 34.8406C175.828 34.7269 175.855 34.6551 175.879 34.6246C175.904 34.595 175.943 34.5801 175.997 34.5801C176.086 34.5801 176.132 34.6157 176.132 34.688V36.591C176.132 36.6629 176.096 36.699 176.024 36.699C175.951 36.699 175.886 36.6544 175.825 36.5647L175.618 36.2772H175.573C175.466 36.3368 175.388 36.3821 175.339 36.4121C174.637 36.8012 173.86 36.9954 173.008 36.9954C172.564 36.9954 172.105 36.9314 171.631 36.8026C171.157 36.6738 170.717 36.4687 170.312 36.1875C169.907 35.9061 169.583 35.5463 169.34 35.1097C169.097 34.6731 168.975 34.1609 168.975 33.5742C168.975 32.9941 169.097 32.4791 169.34 32.0302C169.583 31.5814 169.905 31.2191 170.308 30.9434C170.71 30.668 171.147 30.4661 171.617 30.3375C172.089 30.2087 172.549 30.144 172.999 30.144C173.443 30.144 173.891 30.2074 174.345 30.333C174.797 30.459 175.183 30.6356 175.502 30.8625H175.547L175.754 30.5664C175.808 30.4823 175.871 30.4409 175.943 30.4409C176.02 30.4409 176.06 30.4739 176.06 30.5391Z" fill="url(#paint23_linear_1_35)"/>
<path d="M182.036 30.6382V35.963C182.036 36.1603 182.069 36.2922 182.135 36.3576C182.201 36.4237 182.297 36.4806 182.424 36.5283C182.52 36.5589 182.616 36.5767 182.712 36.5821C182.904 36.5947 183 36.6397 183 36.7164C183 36.7767 182.927 36.807 182.784 36.807H180.119C179.982 36.807 179.912 36.7767 179.912 36.7164C179.912 36.6397 180.008 36.5947 180.199 36.5821C180.29 36.5767 180.386 36.5589 180.489 36.5283C180.614 36.4871 180.711 36.4312 180.776 36.3623C180.842 36.2935 180.874 36.1603 180.874 35.963V30.6382H180.524C179.846 30.6382 179.337 30.7281 178.998 30.908C178.66 31.0872 178.392 31.2992 178.197 31.545C178.003 31.7909 177.853 31.9132 177.752 31.9132C177.632 31.9132 177.572 31.8801 177.572 31.8141C177.572 31.8091 177.573 31.8037 177.576 31.8005C177.578 31.798 177.58 31.7934 177.58 31.7876L177.995 30.4495C178.025 30.3716 178.052 30.3239 178.076 30.3057C178.099 30.2882 178.139 30.2792 178.193 30.2792C178.259 30.2792 178.309 30.2804 178.346 30.2832C178.382 30.2862 178.425 30.2908 178.476 30.2966C178.527 30.3032 178.588 30.309 178.657 30.3148C178.726 30.3214 178.793 30.3272 178.859 30.333H184.062C184.134 30.3272 184.206 30.3214 184.278 30.3148C184.35 30.309 184.411 30.3032 184.463 30.2966C184.513 30.2908 184.554 30.2862 184.584 30.2832C184.614 30.2804 184.661 30.2792 184.728 30.2792C184.818 30.2792 184.878 30.3363 184.908 30.4495L185.34 31.7876C185.346 31.7992 185.349 31.8091 185.349 31.8141C185.349 31.8801 185.285 31.9132 185.16 31.9132C185.142 31.9132 185.085 31.8505 184.989 31.7242C184.767 31.4073 184.468 31.1473 184.093 30.9434C183.718 30.7406 183.138 30.6382 182.352 30.6382H182.036Z" fill="url(#paint24_linear_1_35)"/>
<path d="M188.796 31.3389V33.6821C189.054 33.7061 189.375 33.7177 189.76 33.7177C191.05 33.7177 191.695 33.1881 191.695 32.1285C191.695 31.47 191.482 31.0566 191.056 30.8898C190.629 30.7223 190.168 30.6382 189.669 30.6382C189.363 30.6382 189.142 30.6771 189.004 30.7546C188.865 30.833 188.796 31.0275 188.796 31.3389ZM188.796 33.9876V35.6756L188.806 35.963C188.823 36.1725 188.858 36.3071 188.909 36.3664C188.96 36.4267 189.054 36.4806 189.192 36.5283C189.277 36.5589 189.375 36.5767 189.49 36.5821C189.675 36.5947 189.768 36.6397 189.768 36.7164C189.768 36.7767 189.7 36.807 189.561 36.807H186.888C186.756 36.807 186.69 36.7767 186.69 36.7164C186.69 36.6397 186.78 36.5947 186.96 36.5821C187.074 36.5767 187.173 36.5589 187.257 36.5283C187.395 36.4806 187.493 36.4267 187.55 36.3664C187.606 36.3071 187.638 36.1725 187.645 35.963L187.653 35.6756V31.4642L187.645 31.1681C187.645 30.9649 187.611 30.8284 187.545 30.7597C187.479 30.6905 187.384 30.6408 187.257 30.6116C187.185 30.5871 187.116 30.5722 187.05 30.5664C186.978 30.5541 186.936 30.5482 186.924 30.5482C186.888 30.5424 186.855 30.5391 186.825 30.5391C186.735 30.5391 186.69 30.5005 186.69 30.4229C186.69 30.3628 186.756 30.333 186.888 30.333H190.695C191.121 30.333 191.506 30.3944 191.848 30.5171C192.19 30.6395 192.467 30.8252 192.681 31.0735C192.894 31.3219 193 31.6292 193 31.994C193 32.6168 192.797 33.0774 192.392 33.3769C191.987 33.6763 191.563 33.8587 191.119 33.9247C190.675 33.9901 190.264 34.0233 189.885 34.0233H189.481L188.796 33.9876Z" fill="url(#paint25_linear_1_35)"/>
<path d="M24.811 45.5266C27.8697 45.5266 30.8896 44.7081 33.8686 43.0715C36.8469 41.4353 39.1923 39.1816 40.9037 36.3095C42.6144 33.439 43.4704 30.4876 43.4704 27.4551C43.4704 23.1589 42.3172 19.2534 40.0135 15.739C37.7081 12.2261 34.7188 9.475 31.0459 7.48722C27.3724 5.49896 23.9751 4.50549 20.8554 4.50549C16.4472 4.50549 12.4462 6.16198 8.85316 9.475C5.2607 12.7875 3.46385 16.904 3.46385 21.823C3.46385 28.1077 5.65756 33.6298 10.0463 38.3877C14.4344 43.1465 19.3549 45.5266 24.811 45.5266ZM24.9919 2.15611C31.2313 2.15611 36.3335 4.0494 40.2994 7.83341C44.2653 11.6179 46.2476 16.3418 46.2476 22.0042C46.2476 29.2922 43.9528 35.4268 39.3635 40.4062C34.7745 45.3862 28.6849 47.8753 21.0966 47.8753C14.9376 47.8753 9.89523 45.8673 5.96947 41.8517C2.04503 37.8364 0.0821533 33.0174 0.0821533 27.3949C0.0821533 23.6 1.0276 19.7054 2.92044 15.7092C4.81198 11.7136 7.66066 8.45625 11.4651 5.9361C15.269 3.41673 19.7783 2.15611 24.9919 2.15611Z" fill="url(#paint26_linear_1_35)"/>
<path d="M30.4895 27.6013H33.3978V27.7888C32.4154 27.8386 31.9239 28.3502 31.9239 29.3238C31.9239 29.5328 31.9485 29.8193 31.9991 30.1854L33.936 44.104C34.0527 44.7981 34.1839 45.2414 34.3297 45.4352C34.4756 45.6295 34.7782 45.7463 35.2363 45.7883V45.9753H31.0971V45.7883C31.6489 45.8046 31.9245 45.5405 31.9245 44.9953C31.9245 44.871 31.8992 44.6273 31.8499 44.2645L29.9591 30.7701L23.3565 45.9753H23.2313L16.5918 30.7948L14.7236 44.366C14.6899 44.5725 14.673 44.8073 14.673 45.071C14.673 45.5491 14.9538 45.7883 15.5166 45.7883V45.9753H12.7024V45.7883C13.1277 45.7883 13.4007 45.7368 13.5214 45.6319C13.642 45.5283 13.736 45.362 13.8035 45.133C13.8696 44.9047 13.9195 44.6488 13.9526 44.366L16.0594 29.5231C15.717 28.6997 15.374 28.2047 15.031 28.0385C14.6879 27.8725 14.3579 27.7888 14.0408 27.7888V27.6013H17.5146L23.992 42.6306L30.4895 27.6013Z" fill="url(#paint27_linear_1_35)"/>
<path d="M28.7101 5.63161L29.7762 8.42763L29.5934 8.45823C29.5934 8.44791 29.3113 8.14901 28.7484 7.56181C28.1843 6.97434 27.5397 6.52102 26.8128 6.20137C26.0858 5.88254 25.2668 5.72256 24.3525 5.72256C22.8183 5.72256 21.6018 6.16075 20.703 7.03693C19.8043 7.91424 19.3549 8.96989 19.3549 10.206C19.3549 11.0266 19.5656 11.7434 19.9878 12.3567C20.4086 12.9699 21.2892 13.541 22.6289 14.0713C24.9329 14.8463 26.5093 15.4292 27.3581 15.8185C28.2069 16.2087 29.0253 16.8689 29.8125 17.7997C30.601 18.7313 30.9953 19.926 30.9953 21.3826C30.9953 21.99 30.924 22.5696 30.7826 23.1213C30.6393 23.6731 30.4111 24.2047 30.0966 24.7158C29.7814 25.2267 29.4034 25.6924 28.9611 26.1123C28.5188 26.532 28.0701 26.8516 27.613 27.0682C27.1558 27.2862 26.4341 27.4513 25.449 27.5624C24.4641 27.6738 23.813 27.7294 23.4992 27.7294H17.5114V21.2247H17.7403C17.7603 23.3828 18.2681 24.8871 19.2635 25.7384C20.2589 26.5897 21.808 27.0146 23.9103 27.0146C25.82 27.0146 27.2706 26.5644 28.2608 25.6621C29.2503 24.7603 29.7464 23.6768 29.7464 22.4097C29.7464 21.6401 29.5732 20.9842 29.2283 20.4414C28.8826 19.8994 28.4002 19.4239 27.7809 19.0133C27.161 18.6032 25.9886 18.1025 24.263 17.5112C22.5472 16.9098 21.3418 16.3845 20.6447 15.9337C19.9482 15.4835 19.3665 14.8048 18.8984 13.8987C18.4309 12.9931 18.1968 12.0694 18.1968 11.1277C18.1968 9.39666 18.7933 7.94409 19.9878 6.76993C21.1809 5.59597 22.7469 5.00801 24.6871 5.00801C25.4393 5.00801 26.2519 5.09469 27.1253 5.26675C27.9995 5.43933 28.4871 5.55001 28.5883 5.60102C28.6278 5.6218 28.6693 5.63161 28.7101 5.63161Z" fill="url(#paint28_linear_1_35)"/>
<defs>
<linearGradient id="paint0_linear_1_35" x1="20.522" y1="18.1672" x2="-92.2238" y2="16.8136" gradientUnits="userSpaceOnUse">
<stop stop-color="#B4802F"/>
<stop offset="0.466569" stop-color="#F1E565"/>
<stop offset="1" stop-color="#936629"/>
</linearGradient>
<linearGradient id="paint1_linear_1_35" x1="20.5241" y1="18.0068" x2="-92.2211" y2="16.6531" gradientUnits="userSpaceOnUse">
<stop stop-color="#B4802F"/>
<stop offset="0.466569" stop-color="#F1E565"/>
<stop offset="1" stop-color="#936629"/>
</linearGradient>
<linearGradient id="paint2_linear_1_35" x1="20.5265" y1="17.8127" x2="-92.2191" y2="16.4591" gradientUnits="userSpaceOnUse">
<stop stop-color="#B4802F"/>
<stop offset="0.466569" stop-color="#F1E565"/>
<stop offset="1" stop-color="#936629"/>
</linearGradient>
<linearGradient id="paint3_linear_1_35" x1="20.5284" y1="17.6226" x2="-92.2173" y2="16.2689" gradientUnits="userSpaceOnUse">
<stop stop-color="#B4802F"/>
<stop offset="0.466569" stop-color="#F1E565"/>
<stop offset="1" stop-color="#936629"/>
</linearGradient>
<linearGradient id="paint4_linear_1_35" x1="20.5292" y1="17.5566" x2="-92.216" y2="16.203" gradientUnits="userSpaceOnUse">
<stop stop-color="#B4802F"/>
<stop offset="0.466569" stop-color="#F1E565"/>
<stop offset="1" stop-color="#936629"/>
</linearGradient>
<linearGradient id="paint5_linear_1_35" x1="20.5318" y1="17.3819" x2="-92.214" y2="16.0283" gradientUnits="userSpaceOnUse">
<stop stop-color="#B4802F"/>
<stop offset="0.466569" stop-color="#F1E565"/>
<stop offset="1" stop-color="#936629"/>
</linearGradient>
<linearGradient id="paint6_linear_1_35" x1="20.5333" y1="17.2519" x2="-92.2119" y2="15.8983" gradientUnits="userSpaceOnUse">
<stop stop-color="#B4802F"/>
<stop offset="0.466569" stop-color="#F1E565"/>
<stop offset="1" stop-color="#936629"/>
</linearGradient>
<linearGradient id="paint7_linear_1_35" x1="20.5351" y1="17.0863" x2="-92.2105" y2="15.7327" gradientUnits="userSpaceOnUse">
<stop stop-color="#B4802F"/>
<stop offset="0.466569" stop-color="#F1E565"/>
<stop offset="1" stop-color="#936629"/>
</linearGradient>
<linearGradient id="paint8_linear_1_35" x1="20.5372" y1="16.9291" x2="-92.2081" y2="15.5755" gradientUnits="userSpaceOnUse">
<stop stop-color="#B4802F"/>
<stop offset="0.466569" stop-color="#F1E565"/>
<stop offset="1" stop-color="#936629"/>
</linearGradient>
<linearGradient id="paint9_linear_1_35" x1="20.5384" y1="16.7953" x2="-92.2072" y2="15.4416" gradientUnits="userSpaceOnUse">
<stop stop-color="#B4802F"/>
<stop offset="0.466569" stop-color="#F1E565"/>
<stop offset="1" stop-color="#936629"/>
</linearGradient>
<linearGradient id="paint10_linear_1_35" x1="20.5423" y1="16.5611" x2="-92.2027" y2="15.2075" gradientUnits="userSpaceOnUse">
<stop stop-color="#B4802F"/>
<stop offset="0.466569" stop-color="#F1E565"/>
<stop offset="1" stop-color="#936629"/>
</linearGradient>
<linearGradient id="paint11_linear_1_35" x1="20.3431" y1="33.102" x2="-92.4025" y2="31.7484" gradientUnits="userSpaceOnUse">
<stop stop-color="#B4802F"/>
<stop offset="0.466569" stop-color="#F1E565"/>
<stop offset="1" stop-color="#936629"/>
</linearGradient>
<linearGradient id="paint12_linear_1_35" x1="20.3445" y1="32.9623" x2="-92.4007" y2="31.6087" gradientUnits="userSpaceOnUse">
<stop stop-color="#B4802F"/>
<stop offset="0.466569" stop-color="#F1E565"/>
<stop offset="1" stop-color="#936629"/>
</linearGradient>
<linearGradient id="paint13_linear_1_35" x1="20.3451" y1="32.9132" x2="-92.4001" y2="31.5595" gradientUnits="userSpaceOnUse">
<stop stop-color="#B4802F"/>
<stop offset="0.466569" stop-color="#F1E565"/>
<stop offset="1" stop-color="#936629"/>
</linearGradient>
<linearGradient id="paint14_linear_1_35" x1="20.3458" y1="32.886" x2="-92.3994" y2="31.5324" gradientUnits="userSpaceOnUse">
<stop stop-color="#B4802F"/>
<stop offset="0.466569" stop-color="#F1E565"/>
<stop offset="1" stop-color="#936629"/>
</linearGradient>
<linearGradient id="paint15_linear_1_35" x1="20.3477" y1="32.6958" x2="-92.3977" y2="31.3422" gradientUnits="userSpaceOnUse">
<stop stop-color="#B4802F"/>
<stop offset="0.466569" stop-color="#F1E565"/>
<stop offset="1" stop-color="#936629"/>
</linearGradient>
<linearGradient id="paint16_linear_1_35" x1="20.3489" y1="32.5761" x2="-92.3964" y2="31.2225" gradientUnits="userSpaceOnUse">
<stop stop-color="#B4802F"/>
<stop offset="0.466569" stop-color="#F1E565"/>
<stop offset="1" stop-color="#936629"/>
</linearGradient>
<linearGradient id="paint17_linear_1_35" x1="20.3507" y1="32.4461" x2="-92.3951" y2="31.0925" gradientUnits="userSpaceOnUse">
<stop stop-color="#B4802F"/>
<stop offset="0.466569" stop-color="#F1E565"/>
<stop offset="1" stop-color="#936629"/>
</linearGradient>
<linearGradient id="paint18_linear_1_35" x1="20.3645" y1="31.2889" x2="-92.381" y2="29.9353" gradientUnits="userSpaceOnUse">
<stop stop-color="#B4802F"/>
<stop offset="0.466569" stop-color="#F1E565"/>
<stop offset="1" stop-color="#936629"/>
</linearGradient>
<linearGradient id="paint19_linear_1_35" x1="20.3539" y1="32.157" x2="-92.3917" y2="30.8034" gradientUnits="userSpaceOnUse">
<stop stop-color="#B4802F"/>
<stop offset="0.466569" stop-color="#F1E565"/>
<stop offset="1" stop-color="#936629"/>
</linearGradient>
<linearGradient id="paint20_linear_1_35" x1="20.3559" y1="32.0639" x2="-92.3894" y2="30.7102" gradientUnits="userSpaceOnUse">
<stop stop-color="#B4802F"/>
<stop offset="0.466569" stop-color="#F1E565"/>
<stop offset="1" stop-color="#936629"/>
</linearGradient>
<linearGradient id="paint21_linear_1_35" x1="20.3573" y1="31.9189" x2="-92.3882" y2="30.5653" gradientUnits="userSpaceOnUse">
<stop stop-color="#B4802F"/>
<stop offset="0.466569" stop-color="#F1E565"/>
<stop offset="1" stop-color="#936629"/>
</linearGradient>
<linearGradient id="paint22_linear_1_35" x1="20.3579" y1="31.853" x2="-92.3876" y2="30.4994" gradientUnits="userSpaceOnUse">
<stop stop-color="#B4802F"/>
<stop offset="0.466569" stop-color="#F1E565"/>
<stop offset="1" stop-color="#936629"/>
</linearGradient>
<linearGradient id="paint23_linear_1_35" x1="20.3596" y1="31.7463" x2="-92.3859" y2="30.3926" gradientUnits="userSpaceOnUse">
<stop stop-color="#B4802F"/>
<stop offset="0.466569" stop-color="#F1E565"/>
<stop offset="1" stop-color="#936629"/>
</linearGradient>
<linearGradient id="paint24_linear_1_35" x1="20.3614" y1="31.6072" x2="-92.3833" y2="30.2536" gradientUnits="userSpaceOnUse">
<stop stop-color="#B4802F"/>
<stop offset="0.466569" stop-color="#F1E565"/>
<stop offset="1" stop-color="#936629"/>
</linearGradient>
<linearGradient id="paint25_linear_1_35" x1="20.3623" y1="31.5574" x2="-92.3824" y2="30.2038" gradientUnits="userSpaceOnUse">
<stop stop-color="#B4802F"/>
<stop offset="0.466569" stop-color="#F1E565"/>
<stop offset="1" stop-color="#936629"/>
</linearGradient>
<linearGradient id="paint26_linear_1_35" x1="20.4404" y1="24.9842" x2="-92.3052" y2="23.6306" gradientUnits="userSpaceOnUse">
<stop stop-color="#B4802F"/>
<stop offset="0.466569" stop-color="#F1E565"/>
<stop offset="1" stop-color="#936629"/>
</linearGradient>
<linearGradient id="paint27_linear_1_35" x1="20.299" y1="36.7552" x2="-92.4466" y2="35.4017" gradientUnits="userSpaceOnUse">
<stop stop-color="#B4802F"/>
<stop offset="0.466569" stop-color="#F1E565"/>
<stop offset="1" stop-color="#936629"/>
</linearGradient>
<linearGradient id="paint28_linear_1_35" x1="20.5442" y1="16.3619" x2="-92.2013" y2="15.0083" gradientUnits="userSpaceOnUse">
<stop stop-color="#B4802F"/>
<stop offset="0.466569" stop-color="#F1E565"/>
<stop offset="1" stop-color="#936629"/>
</linearGradient>
</defs>
</svg>
